<svg width="215" height="296" viewBox="0 0 215 296" fill="none" xmlns="http://www.w3.org/2000/svg">
<path d="M205.941 245.14C204.408 242.037 202.104 239.379 199.249 237.422C196.394 235.465 193.084 234.275 189.636 233.964C189.636 233.964 166.803 236.311 132.436 237.431C98.0693 238.55 94.2767 235.876 94.2767 235.876C92.4538 239.623 90.8957 243.492 89.6136 247.456C88.2458 248.575 83.2408 252.725 80.9714 254.715C78.329 257.031 67.5107 260.808 70.293 273.88C73.0753 286.952 89.8779 290.791 110.24 293.62C129.654 296.309 163.306 294.957 179.58 289.983C185.797 288.786 191.02 287.046 194.47 284.621C207.325 275.59 211.413 255.927 205.941 245.14Z" fill="white" stroke="#175873" stroke-linecap="round" stroke-linejoin="round"/>
<path d="M178.507 203.39C175.398 196.815 170.735 183.821 170.735 183.821L177.963 152.33C177.963 152.33 184.693 138.34 182.455 127.025C180.217 115.709 177.388 115.569 167.704 112.103C158.021 108.637 151.741 108.497 149.052 105.155C146.399 101.655 144.585 97.592 143.752 93.2798C143.41 90.4819 143.27 87.4509 143.27 87.4509C143.27 87.4509 133.462 95.2227 118.12 91.1969C118.788 95.1913 118.971 99.2516 118.664 103.29C118.043 108.73 116.395 110.315 106.851 114.637C97.3077 118.958 83.3806 122.408 80.6916 129.9C78.0026 137.392 77.3342 149.314 76.728 168.091C76.0907 187.94 74.8783 190.893 74.8783 190.893L25.139 212.25L24.9369 211.753C24.9369 211.753 22.4966 210.587 20.4293 209.405C18.362 208.224 17.1341 209.405 15.2067 207.074C13.2793 204.742 12.5177 200.421 11.4918 202.116C11.0771 203.066 10.9346 204.112 11.08 205.139C11.2255 206.165 11.6532 207.131 12.3156 207.929L11.6939 210.338L14.8026 222.291C17.1897 222.796 19.6742 222.557 21.9215 221.607C23.9266 220.535 25.7763 219.493 26.8022 218.903C39.3147 216.913 88.7121 202.753 90.1732 202.131C91.883 201.401 98.4423 159.386 98.4423 159.386C98.4423 159.386 105.25 180.51 105.623 184.178C105.996 187.847 92.9089 237.772 92.9089 237.772C92.9089 237.772 98.5511 242.933 122.768 242.436C146.985 241.938 178.212 238.425 183.963 236.218L189.698 233.995C189.698 233.995 181.616 209.872 178.507 203.39Z" fill="#F8F6CD" stroke="#175873" stroke-linecap="round" stroke-linejoin="round"/>
<path d="M131.27 111.015C136.338 111.015 144.374 105.543 146.969 102.108C145.374 99.3462 144.255 96.3353 143.659 93.2019C143.317 90.404 143.177 87.373 143.177 87.373C143.177 87.373 133.369 95.1448 118.027 91.119C118.638 94.8214 118.852 98.5783 118.665 102.326C122.675 105.606 126.141 111.015 131.27 111.015Z" fill="#26425A" stroke="#175873" stroke-linecap="round" stroke-linejoin="round"/>
<path d="M179.984 45.8096C179.984 47.4883 178.43 49.0582 178.181 50.6903C177.932 52.3224 179.176 54.2808 178.772 55.8974C178.367 57.5139 176.44 58.602 175.849 60.1408C175.259 61.6796 175.943 63.8712 175.181 65.3323C174.419 66.7934 172.274 67.3529 171.357 68.7208C170.44 70.0886 170.627 72.358 169.554 73.6015C168.482 74.845 166.29 74.9071 165.109 76.0418C163.927 77.1765 163.648 79.4148 162.358 80.4095C161.067 81.4043 158.922 81.0002 157.539 81.8551C156.156 82.71 155.472 84.8861 154.026 85.6011C152.581 86.3161 150.529 85.4923 149.021 86.0674C147.513 86.6425 146.472 88.6476 144.918 89.0828C143.363 89.518 141.498 88.3212 139.913 88.601C138.327 88.8808 136.959 90.6683 135.358 90.8237C133.757 90.9791 132.125 89.4559 130.509 89.4559C128.892 89.4559 127.245 91.0102 125.659 90.8392C124.074 90.6683 122.659 88.9274 121.105 88.6476C119.551 88.3678 117.639 89.5647 116.1 89.145C114.561 88.7253 113.473 86.7202 111.981 86.1606C110.489 85.6011 108.406 86.4094 106.976 85.7099C105.546 85.0104 104.815 82.8188 103.448 81.9795C102.08 81.1401 99.8881 81.5442 98.6135 80.565C97.3389 79.5857 97.0591 77.3009 95.8467 76.1973C94.6343 75.0937 92.4427 75.0159 91.3857 73.788C90.3288 72.56 90.4842 70.2596 89.5672 68.9073C88.6501 67.5551 86.4585 66.9955 85.7279 65.5344C84.9974 64.0733 85.6346 61.8972 85.0284 60.3584C84.4222 58.8196 82.4949 57.7315 82.0907 56.115C81.6866 54.4985 82.8524 52.5866 82.6503 50.9235C82.4482 49.2603 80.8162 47.7215 80.8162 46.0428C80.8162 44.3641 82.3705 42.7942 82.6192 41.1621C82.8679 39.53 81.64 37.5715 82.0286 35.955C82.4171 34.3385 84.3756 33.2504 84.9663 31.7116C85.5569 30.1728 84.873 27.9812 85.6347 26.5201C86.3963 25.059 88.5258 24.4994 89.4584 23.1316C90.391 21.7638 90.1889 19.4944 91.2614 18.251C92.3339 17.0075 94.51 16.9453 95.7068 15.8106C96.9037 14.6759 97.1524 12.4377 98.4425 11.4429C99.7326 10.4481 101.893 10.8522 103.277 9.9973C104.66 9.14241 105.328 6.9819 106.789 6.25135C108.25 5.5208 110.271 6.36013 111.794 5.78502C113.318 5.2099 114.344 3.2048 115.898 2.78512C117.452 2.36545 119.302 3.53119 120.903 3.25141C122.504 2.97163 123.841 1.18413 125.442 1.0287C127.043 0.873261 128.69 2.39654 130.307 2.39654C131.923 2.39654 133.571 0.842159 135.141 1.01314C136.711 1.18412 138.218 2.87837 139.773 3.20478C141.327 3.5312 143.239 2.28775 144.762 2.70742C146.286 3.1271 147.405 5.13219 148.897 5.69176C150.389 6.25132 152.456 5.44307 153.902 6.14253C155.347 6.84199 156.062 9.03362 157.43 9.87297C158.798 10.7123 160.974 10.3082 162.264 11.2874C163.554 12.2667 163.819 14.5516 165.031 15.6552C166.243 16.7588 168.419 16.8365 169.476 18.0644C170.533 19.2923 170.378 21.5928 171.311 22.9451C172.243 24.2974 174.419 24.8569 175.15 26.318C175.88 27.7791 175.243 29.9552 175.834 31.494C176.424 33.0328 178.383 34.1209 178.787 35.7374C179.191 37.354 178.01 39.2658 178.227 40.929C178.445 42.5921 179.984 44.1309 179.984 45.8096Z" fill="#26425A" stroke="#175873" stroke-linecap="round" stroke-linejoin="round"/>
<path d="M154.29 60.1408C154.29 60.1408 157.306 53.4259 159.902 54.2964C162.497 55.1668 163.601 64.0111 160.368 67.9125C157.135 71.8139 154.539 70.5238 153.886 69.6534C153.233 68.783 154.29 60.1408 154.29 60.1408Z" fill="#F8F6CD" stroke="#175873" stroke-linecap="round" stroke-linejoin="round"/>
<path d="M105.421 56.5812C104.717 56.5354 104.011 56.6373 103.348 56.8803C102.686 57.1233 102.081 57.502 101.573 57.9922C101.066 58.4824 100.666 59.0734 100.4 59.7271C100.133 60.3808 100.007 61.0828 100.028 61.7883C99.6081 67.3995 106.105 69.7622 106.96 70.1974C107.815 70.6326 105.421 56.5812 105.421 56.5812Z" fill="#F8F6CD" stroke="#175873" stroke-linecap="round" stroke-linejoin="round"/>
<path d="M103.665 45.7786C103.665 45.7786 105.017 68.9073 108.934 80.1453C112.851 91.3833 125.846 102.808 131.472 102.139C137.099 101.471 142.058 98.2224 147.016 90.6527C148.843 87.6999 150.379 84.5765 151.601 81.3266C154.157 74.7218 155.357 67.67 155.13 60.5915L154.694 45.9184C154.694 45.9184 147.296 30.1418 129.141 30.6236C115.944 30.8568 109.043 37.7581 103.665 45.7786Z" fill="#F8F6CD" stroke="#175873" stroke-linecap="round" stroke-linejoin="round"/>
<path d="M154.694 45.8718C154.694 45.8718 147.296 30.0951 129.141 30.577C115.944 30.9189 109.043 37.7581 103.665 45.7786C103.665 45.7786 103.774 47.7059 104.023 50.7058C111.227 44.49 120.519 41.2352 130.027 41.5973C143.239 42.188 150.964 46.9443 154.819 50.3017L154.694 45.8718Z" fill="#7E92FF" stroke="#175873" stroke-linecap="round" stroke-linejoin="round"/>
<path d="M120.141 63.576C120.141 65.4257 119.318 65.379 118.307 65.379C117.297 65.379 116.473 65.379 116.457 63.576C116.442 61.7729 117.281 60.2341 118.292 60.2341C119.302 60.2341 120.141 61.7263 120.141 63.576Z" fill="#26425A"/>
<path d="M140.674 63.4982C140.674 65.3478 139.866 65.2857 138.856 65.3012C137.845 65.3167 137.006 65.3012 137.006 63.4982C137.006 61.6951 137.814 60.1563 138.84 60.1407C139.866 60.1252 140.674 61.6796 140.674 63.4982Z" fill="#26425A"/>
<path d="M111.468 57.6537C112.691 56.4082 114.188 55.4647 115.839 54.8982C117.49 54.3316 119.25 54.1575 120.981 54.3896" stroke="#175873" stroke-linecap="round" stroke-linejoin="round"/>
<path d="M134.162 53.7056C134.162 53.7056 140.643 50.5969 146.286 57.3428" stroke="#175873" stroke-linecap="round" stroke-linejoin="round"/>
<path d="M125.348 72.8242C125.348 72.8242 130.338 76.7101 134.675 72.8242" stroke="#175873" stroke-linecap="round" stroke-linejoin="round"/>
<path d="M113.939 66.7313C116.595 66.2372 119.312 66.1638 121.991 66.5137" stroke="#175873" stroke-width="0.5" stroke-linecap="round" stroke-linejoin="round"/>
<path d="M136.182 66.2959C138.864 65.828 141.618 65.9769 144.234 66.7311" stroke="#175873" stroke-width="0.5" stroke-linecap="round" stroke-linejoin="round"/>
<path d="M126.436 67.353L132.374 65.239" stroke="#175873" stroke-width="0.5" stroke-linecap="round" stroke-linejoin="round"/>
<path d="M126.654 65.6588L131.1 63.7625" stroke="#175873" stroke-width="0.5" stroke-linecap="round" stroke-linejoin="round"/>
<path d="M123.421 80.3163C123.421 80.3163 131.426 85.2746 137.255 79.2126" stroke="#175873" stroke-linecap="round" stroke-linejoin="round"/>
<path d="M183.901 236.187L189.636 233.964C189.636 233.964 181.616 209.872 178.507 203.312C175.398 196.753 170.735 183.743 170.735 183.743L176.828 157.241C169.57 155.687 162.093 142.957 161.129 134.19C160.383 127.305 161.036 116.393 161.549 110.082L158.269 109.196C157.604 118.211 157.433 127.255 157.756 136.289C134.441 142.972 109.774 137.594 109.774 137.594V113.16C108.872 113.595 107.877 114.061 106.774 114.559C106.649 118.631 106.276 126.574 105.219 134.33C103.774 145.428 98.3335 159.309 98.3335 159.309C98.3335 159.309 105.142 180.432 105.515 184.101C105.888 187.769 92.8 237.695 92.8 237.695C92.8 237.695 98.4423 242.855 122.659 242.358C146.876 241.86 178.15 238.394 183.901 236.187Z" fill="#26425A" stroke="#175873" stroke-linecap="round" stroke-linejoin="round"/>
<path d="M96.7172 232.55L129.032 205.333L47.1333 198.649L14.9893 224.778L96.7172 232.55Z" fill="#828282" stroke="#175873" stroke-linecap="round" stroke-linejoin="round"/>
<path d="M14.9892 224.778L96.7171 232.549L83.9092 174.044L1 168.759L14.9892 224.778Z" fill="#26425A" stroke="#175873" stroke-linecap="round" stroke-linejoin="round"/>
<path d="M85.4946 181.302C69.4692 183.914 62.9876 199.566 44.8483 214.41C38.7353 219.629 31.5587 223.453 23.8179 225.617L96.717 232.55L85.4946 181.302Z" fill="#4C4C4C" stroke="#175873" stroke-linecap="round" stroke-linejoin="round"/>
<path d="M11.4763 218.343C11.7135 219.895 12.4374 221.332 13.5436 222.446C15.2845 224.001 19.1548 223.861 19.932 222.571C20.7092 221.281 19.0305 221.016 16.8233 220.099C15.0871 219.382 13.2998 218.795 11.4763 218.343Z" fill="#F8F6CD" stroke="#175873" stroke-linecap="round" stroke-linejoin="round"/>
<path d="M10.979 216.804C10.979 216.804 10.0153 218.514 14.2587 219.788C18.5021 221.063 20.7403 219.602 21.1911 218.016C21.2992 217.724 21.3395 217.412 21.3088 217.102C21.2781 216.792 21.1773 216.493 21.0141 216.228C20.8508 215.963 20.6293 215.739 20.3665 215.572C20.1036 215.405 19.8062 215.3 19.4969 215.265C18.5642 215.265 12.409 216.104 11.7251 216.136C11.0412 216.167 10.7614 215.56 10.979 216.804Z" fill="#F8F6CD" stroke="#175873" stroke-linecap="round" stroke-linejoin="round"/>
<path d="M9.20703 211.846C9.20703 211.846 9.20702 215.514 9.82876 216.431C10.4505 217.348 16.0462 218.25 18.642 216.664C21.2377 215.079 20.5227 212.172 18.8596 212.25C17.1964 212.328 9.20703 211.846 9.20703 211.846Z" fill="#F8F6CD" stroke="#175873" stroke-linecap="round" stroke-linejoin="round"/>
<path d="M9.89102 204.167C9.89102 204.167 6.58024 210.711 8.91177 212.576C11.2433 214.441 17.9892 213.851 18.9995 211.27C20.0098 208.69 17.4452 209.094 14.6473 208.659L11.1034 208.1L9.89102 204.167Z" fill="#F8F6CD" stroke="#175873" stroke-linecap="round" stroke-linejoin="round"/>
<path d="M165.249 284.216C165.249 284.216 116.457 272.092 96.7171 257.435C76.9768 242.777 64.8218 230.871 49.6202 227.607C34.4186 224.342 22.7921 232.829 22.8543 244.098C22.9164 255.367 30.626 262.875 50.0244 273.165C69.4227 283.455 98.6756 289.89 119.255 293.107C139.835 296.325 162.948 295.097 167.285 295.097C171.621 295.097 178.756 295.485 189.232 294.506C193.878 294.22 198.238 292.167 201.417 288.768C204.597 285.368 206.355 280.881 206.33 276.227C206.439 272.325 199.242 266.388 192.947 269.403C186.652 272.419 175.072 283.252 165.249 284.216Z" fill="#A1A1A1" stroke="#175873" stroke-linecap="round" stroke-linejoin="round"/>
<path d="M142.151 277.579C126.763 272.636 107.458 265.409 96.7171 257.373C76.9613 242.731 64.8218 230.809 49.6668 227.545C34.5119 224.28 22.8387 232.767 22.9009 244.036C22.9631 255.305 30.6727 262.813 50.071 273.103C69.4693 283.393 98.7222 289.828 119.302 293.045C125.053 293.947 131.006 294.506 136.695 294.833C136.695 294.024 136.695 293.185 136.773 292.268C136.99 287.154 139.913 281.325 142.151 277.579Z" fill="white" stroke="#175873" stroke-linecap="round" stroke-linejoin="round"/>
<path d="M192.978 269.357C188.315 271.595 180.776 278.108 173.176 281.792C172.841 282.362 172.658 283.009 172.645 283.67C172.631 284.331 172.787 284.985 173.098 285.569C174.388 287.764 176.239 289.577 178.46 290.822C178.46 290.822 175.352 294.397 167.285 295.066C171.637 294.941 178.756 295.454 189.232 294.475C193.878 294.189 198.238 292.136 201.417 288.737C204.597 285.338 206.355 280.85 206.33 276.196C206.47 272.279 199.273 266.341 192.978 269.357Z" fill="#26425A" stroke="#175873" stroke-linecap="round" stroke-linejoin="round"/>
<path d="M202.444 278.372C202.864 287.869 194.191 291.413 189.232 294.46C193.878 294.174 198.238 292.12 201.417 288.721C204.597 285.322 206.355 280.835 206.33 276.18C206.439 272.279 199.242 266.341 192.947 269.357C192.978 269.357 201.947 268.859 202.444 278.372Z" fill="white" stroke="#175873" stroke-linecap="round" stroke-linejoin="round"/>
<path d="M64.6197 283.564C64.6197 283.564 113.691 272.683 133.835 258.57C153.979 244.456 166.477 232.861 181.663 230.001C196.849 227.141 208.335 235.938 207.993 247.207C207.651 258.476 199.74 265.766 180.015 275.528C160.29 285.289 130.928 290.947 110.271 293.62C89.6137 296.294 66.5938 294.506 62.2571 294.273C54.9368 294.25 47.6222 293.861 40.3407 293.107C35.6978 292.704 31.3855 290.539 28.2895 287.055C25.1936 283.572 23.549 279.036 23.6936 274.377C23.6936 270.476 31.0457 264.74 37.2476 267.927C43.4494 271.113 54.8117 282.274 64.6197 283.564Z" fill="#F8F6CD" stroke="#175873" stroke-linecap="round" stroke-linejoin="round"/>
<path d="M181.74 230C166.508 232.86 154.042 244.456 133.913 258.569C122.675 266.419 102.468 273.336 86.8004 277.812C85.8618 282.253 85.7773 286.832 86.5516 291.304C86.8159 292.687 87.0646 293.931 87.3288 295.066C95.0081 295.028 102.679 294.545 110.302 293.62C130.96 290.947 160.368 285.289 180.046 275.527C199.724 265.766 207.636 258.43 208.024 247.207C208.413 235.985 196.911 227.156 181.74 230Z" fill="white" stroke="#175873" stroke-linecap="round" stroke-linejoin="round"/>
<path d="M49.6202 291.506C51.7604 290.013 53.6581 288.199 55.247 286.128C56.8013 283.688 54.905 280.144 54.6252 279.631C47.8949 275.699 41.4754 270.041 37.3408 267.927C31.1234 264.818 23.7869 270.476 23.7869 274.377C23.6423 279.035 25.2869 283.572 28.3829 287.055C31.4788 290.539 35.7911 292.704 40.434 293.107C45.9344 293.752 51.4656 294.099 57.0034 294.149C52.7289 292.874 49.6202 291.506 49.6202 291.506Z" fill="#26425A" stroke="#175873" stroke-linecap="round" stroke-linejoin="round"/>
<path d="M40.8225 293.154C39.2681 292.33 37.7138 291.444 36.3304 290.651C32.3047 288.18 26.538 284.434 26.2582 278.217C26.0561 273.942 29.3669 269.512 31.3876 267.165C27.2063 268.082 23.7246 271.642 23.7246 274.315C23.58 278.973 25.2246 283.51 28.3206 286.993C31.4166 290.476 35.7288 292.642 40.3717 293.045L40.8225 293.154Z" fill="white" stroke="#175873" stroke-linecap="round" stroke-linejoin="round"/>
<path d="M171.963 144.511C171.963 144.511 196.833 206.809 201.076 209.219C205.32 211.628 215.423 210.773 212.843 196.566C210.263 182.359 199.009 139.832 194.486 130.724C191.169 123.709 185.372 118.171 178.212 115.18C175.499 114.044 172.614 113.371 169.678 113.191" fill="#F8F6CD"/>
<path d="M171.963 144.511C171.963 144.511 196.833 206.809 201.076 209.219C205.32 211.628 215.423 210.773 212.843 196.566C210.263 182.359 199.009 139.832 194.486 130.724C191.169 123.709 185.372 118.171 178.212 115.18C175.499 114.044 172.614 113.371 169.678 113.191" stroke="#175873" stroke-linecap="round" stroke-linejoin="round"/>
<path d="M201.139 191.67C190.217 194.768 178.958 196.517 167.611 196.877C149.892 197.25 150.094 197.235 143.519 195.152C136.944 193.069 125.224 188.935 120.872 188.282C116.52 187.629 114.002 186.339 112.54 188.064C99.7015 203.219 97.8052 203.716 98.0694 204.991C98.3336 206.266 104.054 203.437 104.054 203.437C104.054 203.437 100.836 208.784 102.142 208.939C103.69 208.813 105.21 208.452 106.649 207.867C106.649 207.867 106.743 210.027 108.452 209.732C110.063 209.215 111.568 208.415 112.898 207.369C112.898 207.369 110.971 212.654 113.271 210.82C115.571 208.986 121.804 203.297 122.442 203.048C123.079 202.799 128.799 204.711 131.768 204.789C134.231 204.725 136.68 204.397 139.073 203.81C139.073 203.81 159.093 210.913 176.953 213.136C194.812 215.359 209.159 212.328 212.454 208.706C215.75 205.084 212.656 198.742 210.9 193.846" fill="#F8F6CD"/>
<path d="M201.139 191.67C190.217 194.768 178.958 196.517 167.611 196.877C149.892 197.25 150.094 197.235 143.519 195.152C136.944 193.069 125.224 188.935 120.872 188.282C116.52 187.629 114.002 186.339 112.54 188.064C99.7015 203.219 97.8052 203.716 98.0694 204.991C98.3336 206.266 104.054 203.437 104.054 203.437C104.054 203.437 100.836 208.784 102.142 208.939C103.69 208.813 105.21 208.452 106.649 207.867C106.649 207.867 106.743 210.027 108.452 209.732C110.063 209.215 111.568 208.415 112.898 207.369C112.898 207.369 110.971 212.654 113.271 210.82C115.571 208.986 121.804 203.297 122.442 203.048C123.079 202.799 128.799 204.711 131.768 204.789C134.231 204.725 136.68 204.397 139.073 203.81C139.073 203.81 159.093 210.913 176.953 213.136C194.812 215.359 209.159 212.328 212.454 208.706C215.75 205.084 212.656 198.742 210.9 193.846" stroke="#175873" stroke-linecap="round" stroke-linejoin="round"/>
<path d="M104.022 203.39C104.022 203.39 110.364 195.105 112.836 192.183" stroke="#175873" stroke-linecap="round" stroke-linejoin="round"/>
<path d="M106.649 207.851L118.494 192.167" stroke="#175873" stroke-linecap="round" stroke-linejoin="round"/>
<path d="M112.898 207.354C112.898 207.354 120.25 197.717 121.758 197.437" stroke="#175873" stroke-linecap="round" stroke-linejoin="round"/>
</svg>
