<svg width="635" height="616" viewBox="0 0 635 616" fill="none" xmlns="http://www.w3.org/2000/svg">
<path d="M317.5 615.81C492.85 615.81 635 533.739 635 432.5C635 331.261 492.85 249.191 317.5 249.191C142.15 249.191 0 331.261 0 432.5C0 533.739 142.15 615.81 317.5 615.81Z" fill="#175873"/>
<path d="M499.839 496.106C479.019 484.085 479.019 464.6 499.839 452.579C520.659 440.559 554.416 440.559 575.235 452.579C596.055 464.6 596.055 484.085 575.235 496.106C554.416 508.126 520.659 508.126 499.839 496.106Z" fill="#E0E0E0"/>
<path d="M76.38 497.776L21.6149 466.163C18.529 464.384 18.529 461.487 21.6149 459.708L340.166 275.792C341.897 274.915 343.811 274.458 345.752 274.458C347.693 274.458 349.606 274.915 351.337 275.792L406.116 307.406C409.202 309.185 409.202 312.082 406.116 313.861L87.5648 497.776C85.8312 498.654 83.9154 499.111 81.9724 499.111C80.0294 499.111 78.1136 498.654 76.38 497.776Z" fill="#E0E0E0"/>
<path d="M273.232 441.421L320.316 414.201C325.167 411.398 327.593 407.732 327.593 404.053C327.593 400.375 327.593 397.504 327.593 397.504L278.757 369.96C277.393 369.078 276.257 367.885 275.442 366.48C274.627 365.075 274.156 363.497 274.068 361.875V303.808L191.866 351.323V409.363C191.961 410.983 192.435 412.559 193.249 413.963C194.063 415.368 195.196 416.561 196.556 417.448L238.115 441.381C247.79 447.027 263.53 447.027 273.232 441.421Z" fill="#175873"/>
<g opacity="0.6">
<path d="M273.232 441.421L320.316 414.201C325.167 411.398 327.593 407.732 327.593 404.053C327.593 400.375 327.593 397.504 327.593 397.504L278.757 369.96C277.393 369.078 276.257 367.885 275.442 366.48C274.627 365.075 274.156 363.497 274.068 361.875V303.808L191.866 351.323V409.363C191.961 410.983 192.435 412.559 193.249 413.963C194.063 415.368 195.196 416.561 196.556 417.448L238.115 441.381C247.79 447.027 263.53 447.027 273.232 441.421Z" fill="white"/>
</g>
<path opacity="0.3" d="M211.581 419.645V426.167L196.515 417.475C195.156 416.589 194.024 415.395 193.212 413.991C192.4 412.586 191.929 411.01 191.839 409.39V351.323L207.498 342.281C207.821 346.256 208.172 350.366 208.509 354.409L197.499 360.743V406.088C197.586 407.711 198.057 409.289 198.872 410.694C199.687 412.1 200.824 413.292 202.189 414.174L211.581 419.645Z" fill="white"/>
<path d="M197.499 406.102C197.592 407.723 198.064 409.299 198.879 410.704C199.694 412.109 200.828 413.302 202.189 414.187L238.061 434.859C247.763 440.451 263.503 440.465 273.219 434.859L320.384 407.638C330.1 402.032 330.1 392.949 320.384 387.344L284.485 366.672C283.127 365.784 281.996 364.59 281.184 363.186C280.372 361.782 279.901 360.206 279.808 358.586V313.227L197.607 360.743L197.499 406.102Z" fill="#175873"/>
<path opacity="0.3" d="M197.499 406.102C197.592 407.723 198.064 409.299 198.879 410.704C199.694 412.109 200.828 413.302 202.189 414.187L238.061 434.859C247.763 440.451 263.503 440.465 273.219 434.859L320.384 407.638C330.1 402.032 330.1 392.949 320.384 387.344L284.485 366.672C283.127 365.784 281.996 364.59 281.184 363.186C280.372 361.782 279.901 360.206 279.808 358.586V313.227L197.607 360.743L197.499 406.102Z" fill="white"/>
<path opacity="0.5" d="M293.985 372.21L284.431 366.699C283.073 365.811 281.942 364.617 281.13 363.213C280.318 361.808 279.847 360.233 279.755 358.613V313.227L197.553 360.743V406.102C197.646 407.723 198.118 409.299 198.933 410.704C199.748 412.109 200.881 413.302 202.243 414.187L211.676 419.577L293.985 372.21Z" fill="white"/>
<path d="M327.607 397.518V404.067C327.607 407.746 325.168 411.398 320.33 414.214L273.165 441.421C268.003 444.176 262.239 445.607 256.388 445.585V439.063C262.239 439.085 268.003 437.654 273.165 434.899L320.33 407.665C325.168 404.875 327.607 401.196 327.607 397.518Z" fill="#175873"/>
<path opacity="0.5" d="M327.607 397.518V404.067C327.607 407.746 325.168 411.398 320.33 414.214L273.165 441.421C268.003 444.176 262.239 445.607 256.388 445.585V439.063C262.239 439.085 268.003 437.654 273.165 434.899L320.33 407.665C325.168 404.875 327.607 401.196 327.607 397.518Z" fill="white"/>
<path d="M65.4377 462.47C67.2148 463.329 69.1686 463.757 71.1418 463.722C73.115 463.687 75.0523 463.189 76.7977 462.268L394.823 278.662C396.529 277.55 397.948 276.052 398.966 274.289C399.985 272.526 400.574 270.548 400.685 268.515V11.2378C400.624 9.26011 400.097 7.32476 399.146 5.58949C398.195 3.85423 396.848 2.36815 395.214 1.25238C393.439 0.393108 391.487 -0.0352023 389.515 0.00226238C387.543 0.0397271 385.608 0.54191 383.868 1.46799L65.842 185.128C64.1427 186.247 62.732 187.752 61.725 189.52C60.718 191.288 60.1432 193.269 60.0475 195.302V452.539C60.1076 454.5 60.6265 456.42 61.5626 458.145C62.4986 459.87 63.8259 461.351 65.4377 462.47Z" fill="#175873"/>
<path d="M76.8381 462.255L394.864 278.649C396.571 277.539 397.992 276.041 399.011 274.278C400.03 272.514 400.617 270.535 400.726 268.502V11.2379C400.726 7.5051 398.098 5.98235 394.864 7.85547L76.8381 191.461C75.1321 192.573 73.7122 194.071 72.6937 195.834C71.6752 197.597 71.0868 199.575 70.9762 201.608V458.872C70.9762 462.605 73.6039 464.128 76.8381 462.255Z" fill="#175873"/>
<path opacity="0.5" d="M76.8381 462.255L394.864 278.649C396.571 277.539 397.992 276.041 399.011 274.278C400.03 272.514 400.617 270.535 400.726 268.502V11.2379C400.726 7.5051 398.098 5.98235 394.864 7.85547L76.8381 191.461C75.1321 192.573 73.7122 194.071 72.6937 195.834C71.6752 197.597 71.0868 199.575 70.9762 201.608V458.872C70.9762 462.605 73.6039 464.128 76.8381 462.255Z" fill="white"/>
<path d="M75.9757 468.939C74.308 469.667 72.5023 470.024 70.6831 469.987C68.8638 469.95 67.0743 469.518 65.4377 468.723C63.8223 467.601 62.4928 466.115 61.5566 464.386C60.6203 462.656 60.1034 460.731 60.0475 458.764V435.344L71.0301 441.704V465.125C70.9628 468.534 73.1323 470.084 75.9757 468.939Z" fill="#175873"/>
<path opacity="0.5" d="M75.9757 468.939C74.308 469.667 72.5023 470.024 70.6831 469.987C68.8638 469.95 67.0743 469.518 65.4377 468.723C63.8223 467.601 62.4928 466.115 61.5566 464.386C60.6203 462.656 60.1034 460.731 60.0475 458.764V435.344L71.0301 441.704V465.125C70.9628 468.534 73.1323 470.084 75.9757 468.939Z" fill="white"/>
<path d="M70.9628 441.704V465.125C70.9628 468.858 73.658 470.367 76.8247 468.507L394.85 284.902C396.548 283.795 397.963 282.305 398.981 280.552C400 278.799 400.592 276.832 400.712 274.808V251.28L70.9628 441.704Z" fill="#175873"/>
<path opacity="0.3" d="M70.9762 441.65V465.125C70.9762 468.858 73.6713 470.367 76.8381 468.507L394.864 284.902C396.559 283.793 397.972 282.303 398.987 280.55C400.003 278.797 400.594 276.831 400.712 274.808V251.28L70.9762 441.65Z" fill="white"/>
<path d="M81.9589 412.26V205.26C82.0217 204.041 82.3717 202.853 82.9806 201.795C83.5895 200.736 84.4399 199.837 85.4626 199.169L386.158 25.5085C388.099 24.3901 389.676 25.2929 389.676 27.5299V234.637C389.61 235.858 389.258 237.046 388.647 238.104C388.035 239.162 387.183 240.062 386.158 240.728L85.4761 414.349C83.5356 415.467 81.9589 414.551 81.9589 412.26Z" fill="#175873"/>
<path d="M81.9589 412.26V205.26C82.0217 204.041 82.3717 202.853 82.9806 201.795C83.5895 200.736 84.4399 199.837 85.4626 199.169L386.158 25.5085C388.099 24.3901 389.676 25.2929 389.676 27.5299V234.637C389.61 235.858 389.258 237.046 388.647 238.104C388.035 239.162 387.183 240.062 386.158 240.728L85.4761 414.349C83.5356 415.467 81.9589 414.551 81.9589 412.26Z" fill="#263238"/>
<path d="M235.837 353.951C234.237 354.992 232.905 356.396 231.949 358.049C230.994 359.702 230.442 361.558 230.339 363.465C230.339 366.968 232.805 368.397 235.837 366.645C237.44 365.602 238.773 364.196 239.729 362.54C240.684 360.885 241.235 359.026 241.335 357.118C241.335 353.614 238.869 352.199 235.837 353.951Z" fill="#175873"/>
<path opacity="0.7" d="M72.7011 195.814C71.6568 197.569 71.0598 199.555 70.9628 201.595V441.704L60.0475 435.344V195.302C60.1182 193.255 60.712 191.26 61.7724 189.507L72.7011 195.814Z" fill="white"/>
<path opacity="0.3" d="M400.658 10.2676C400.241 7.24906 397.801 6.22491 394.85 7.85547L76.8247 191.461C75.1004 192.54 73.6772 194.037 72.6877 195.814L61.6915 189.467C62.6876 187.691 64.115 186.194 65.842 185.114L383.868 1.52191C385.611 0.595702 387.548 0.0934953 389.522 0.0560338C391.496 0.0185724 393.45 0.446911 395.228 1.3063C396.722 2.32419 397.979 3.651 398.916 5.19702C399.853 6.74304 400.447 8.47221 400.658 10.2676Z" fill="white"/>
<path d="M417.813 41.9353C417.34 41.6983 416.812 41.5944 416.285 41.6347C415.758 41.6751 415.252 41.8582 414.821 42.1644L114.745 215.515C113.561 216.299 112.578 217.35 111.876 218.583C111.174 219.817 110.772 221.199 110.703 222.617V428.35C110.661 429.044 110.799 429.738 111.103 430.364C111.408 430.989 111.868 431.526 112.441 431.921C113.101 432.285 116.632 434.333 117.683 434.899C118.055 435.088 118.47 435.176 118.887 435.152C119.304 435.128 119.707 434.995 120.055 434.764L420.063 261.413C421.247 260.63 422.23 259.579 422.933 258.345C423.635 257.112 424.037 255.73 424.106 254.312V47.5143C424.166 46.9917 424.08 46.4627 423.856 45.9866C423.632 45.5105 423.28 45.1062 422.839 44.8191C422.166 44.3744 418.568 42.38 417.813 41.9353Z" fill="#175873"/>
<path d="M119.987 218.426L420.077 45.1427C422.341 43.7951 424.12 44.9001 424.12 47.5144V254.312C424.05 255.73 423.648 257.112 422.946 258.345C422.244 259.579 421.261 260.63 420.077 261.413L119.987 434.764C117.723 436.112 115.945 433.942 115.945 431.328V225.528C116.016 224.11 116.419 222.729 117.121 221.496C117.823 220.262 118.805 219.211 119.987 218.426Z" fill="#FAFAFA"/>
<path d="M421.909 45.9242C422.705 45.9242 422.826 46.9214 422.826 47.5144V254.312C422.753 255.499 422.405 256.653 421.808 257.683C421.212 258.712 420.384 259.588 419.39 260.241L119.341 433.592C119.139 433.723 118.907 433.797 118.667 433.808C117.912 433.808 117.319 432.649 117.319 431.328V225.528C117.384 224.341 117.722 223.185 118.306 222.149C118.89 221.114 119.706 220.227 120.688 219.558L420.751 46.3015C421.098 46.0775 421.497 45.9475 421.909 45.9242ZM421.909 44.5767C421.26 44.6043 420.629 44.7993 420.077 45.1426L119.987 218.426C118.805 219.211 117.823 220.262 117.121 221.496C116.419 222.729 116.016 224.11 115.945 225.528V431.328C115.945 433.403 117.104 435.155 118.64 435.155C119.116 435.146 119.581 435.011 119.987 434.764L420.063 261.414C421.247 260.63 422.23 259.579 422.933 258.345C423.635 257.112 424.037 255.73 424.106 254.312V47.5144C424.106 45.6547 423.19 44.5767 421.842 44.5767H421.909Z" fill="#E0E0E0"/>
<path d="M112.36 431.921C112.805 432.15 115.999 433.969 117.4 434.778C116.897 434.36 116.498 433.831 116.236 433.232C115.974 432.633 115.856 431.981 115.891 431.328V238.963L110.635 235.891V428.35C110.592 429.043 110.728 429.736 111.03 430.361C111.332 430.987 111.79 431.524 112.36 431.921Z" fill="#F0F0F0"/>
<path d="M424.173 47.4739C424.173 44.8866 422.327 43.8355 420.131 45.1426L119.987 218.426C118.805 219.211 117.823 220.262 117.121 221.496C116.419 222.729 116.016 224.11 115.945 225.528V239.003L424.173 60.9496V47.4739Z" fill="#175873"/>
<g opacity="0.4">
<path d="M420.077 45.1427L119.987 218.413C118.783 219.172 117.791 220.225 117.104 221.472L111.888 218.44C112.574 217.236 113.558 216.229 114.745 215.515L414.821 42.1645C415.251 41.8562 415.756 41.6707 416.283 41.6279C416.81 41.5852 417.339 41.6868 417.813 41.922C418.54 42.3801 421.95 44.3072 422.826 44.7788C422.373 44.6108 421.885 44.5561 421.406 44.6195C420.927 44.6829 420.471 44.8625 420.077 45.1427Z" fill="white"/>
</g>
<path opacity="0.15" d="M110.635 235.904V222.55C110.691 221.094 111.122 219.678 111.888 218.44L117.117 221.458C116.362 222.675 115.939 224.069 115.891 225.501V238.976L110.635 235.904Z" fill="black"/>
<path d="M360.892 202.606L181.167 306.368C180.293 306.935 179.565 307.701 179.043 308.602C178.521 309.504 178.219 310.516 178.162 311.556V363.087C178.219 364.128 178.521 365.14 179.043 366.041C179.565 366.943 180.293 367.708 181.167 368.275L186.409 371.294C187.341 371.765 188.37 372.011 189.414 372.011C190.458 372.011 191.487 371.765 192.419 371.294L372.117 267.531C372.991 266.961 373.719 266.193 374.241 265.29C374.763 264.386 375.065 263.372 375.122 262.33V210.785C375.065 209.745 374.763 208.733 374.241 207.831C373.719 206.93 372.991 206.164 372.117 205.597L366.861 202.579C365.934 202.115 364.91 201.876 363.873 201.881C362.836 201.885 361.815 202.134 360.892 202.606Z" fill="#175873"/>
<path opacity="0.5" d="M375.122 210.327C374.906 208.777 373.653 208.212 372.144 209.087L192.419 312.85C191.533 313.401 190.804 314.171 190.303 315.087L179.051 308.592C179.555 307.69 180.278 306.93 181.153 306.382L360.892 202.619C361.821 202.147 362.848 201.901 363.89 201.901C364.932 201.901 365.959 202.147 366.888 202.619L372.144 205.638C372.945 206.163 373.625 206.853 374.139 207.661C374.652 208.47 374.987 209.379 375.122 210.327Z" fill="white"/>
<path d="M191.907 371.55C191.027 371.897 190.084 372.055 189.139 372.013C188.194 371.971 187.268 371.731 186.422 371.307L181.167 368.289C180.294 367.72 179.568 366.954 179.046 366.053C178.524 365.152 178.221 364.141 178.162 363.101V311.57C178.202 310.518 178.508 309.494 179.051 308.592L190.303 315.087C189.757 315.977 189.45 316.994 189.414 318.038V369.583C189.414 371.294 190.492 372.089 191.907 371.55Z" fill="#263238"/>
<path d="M192.419 312.85L372.144 209.087C373.801 208.131 375.149 208.899 375.149 210.812V262.357C375.092 263.399 374.79 264.413 374.268 265.317C373.746 266.22 373.018 266.988 372.144 267.558L192.446 371.321C190.788 372.278 189.441 371.496 189.441 369.583V318.052C189.495 317.012 189.793 315.999 190.31 315.096C190.827 314.192 191.55 313.423 192.419 312.85Z" fill="#175873"/>
<path d="M313.242 230.123L181.18 306.382C180.305 306.93 179.582 307.69 179.078 308.592L190.33 315.087C190.831 314.171 191.56 313.401 192.446 312.85L324.507 236.605L313.242 230.123Z" fill="#455A64"/>
<path d="M324.48 236.605L192.419 312.85C191.545 313.42 190.817 314.188 190.295 315.092C189.773 315.995 189.471 317.009 189.414 318.052V369.569C189.414 371.483 190.762 372.264 192.419 371.307L324.48 295.062V236.605Z" fill="#37474F"/>
<path d="M222.874 306.57L291.02 267.235C293.837 265.604 296.128 266.763 296.128 269.822C296.002 271.54 295.472 273.204 294.583 274.68C293.693 276.155 292.468 277.399 291.007 278.312L222.874 317.661C220.058 319.291 217.753 318.133 217.753 315.074C217.88 313.354 218.41 311.688 219.3 310.211C220.189 308.734 221.413 307.487 222.874 306.57Z" fill="#175873"/>
<path d="M236.835 319.601C236.847 319.587 236.863 319.575 236.88 319.568C236.898 319.56 236.917 319.556 236.936 319.556C236.955 319.556 236.974 319.56 236.991 319.568C237.009 319.575 237.024 319.587 237.037 319.601C237.097 319.693 237.126 319.802 237.118 319.911V327.579C237.119 328.32 237.056 329.059 236.929 329.789C236.818 330.456 236.628 331.107 236.363 331.729C236.122 332.299 235.804 332.834 235.42 333.32C235.041 333.77 234.584 334.148 234.072 334.438C233.671 334.699 233.203 334.84 232.725 334.842C232.542 334.828 232.364 334.776 232.202 334.69C232.039 334.605 231.896 334.487 231.781 334.344C231.486 333.947 231.291 333.485 231.215 332.996C231.086 332.344 231.028 331.68 231.04 331.015V323.334C231.04 323.2 231.067 323.067 231.121 322.943C231.154 322.832 231.226 322.737 231.323 322.674L232.172 322.175C232.2 322.15 232.236 322.135 232.273 322.135C232.311 322.135 232.347 322.15 232.374 322.175C232.437 322.266 232.465 322.375 232.455 322.485V330.058C232.445 330.475 232.486 330.891 232.576 331.298C232.614 331.558 232.726 331.802 232.9 331.999C232.96 332.071 233.037 332.128 233.124 332.166C233.21 332.203 233.304 332.22 233.398 332.215C233.629 332.199 233.852 332.125 234.045 331.999C234.285 331.856 234.503 331.679 234.692 331.473C234.902 331.231 235.075 330.959 235.204 330.665C235.356 330.319 235.469 329.957 235.541 329.587C235.62 329.142 235.656 328.691 235.649 328.239V320.652C235.653 320.517 235.685 320.384 235.743 320.262C235.776 320.151 235.848 320.055 235.945 319.992L236.835 319.601Z" fill="#FAFAFA"/>
<path d="M242.117 326.851C242.124 326.752 242.101 326.654 242.05 326.568C242.018 326.533 241.978 326.506 241.933 326.49C241.889 326.474 241.841 326.468 241.794 326.474C241.628 326.451 241.461 326.451 241.295 326.474L240.514 326.622C240.261 326.685 239.998 326.685 239.746 326.622C239.548 326.559 239.377 326.43 239.26 326.258C239.129 326.04 239.042 325.797 239.004 325.544C238.873 324.822 238.873 324.083 239.004 323.361C239.105 322.947 239.25 322.545 239.436 322.162C239.62 321.779 239.846 321.417 240.109 321.084C240.364 320.766 240.675 320.496 241.026 320.289C241.309 320.116 241.626 320.006 241.956 319.965C242.195 319.94 242.435 319.992 242.643 320.113C242.84 320.234 242.996 320.413 243.087 320.626C243.196 320.877 243.256 321.147 243.263 321.421C243.277 321.556 243.248 321.693 243.182 321.811C243.149 321.923 243.077 322.018 242.98 322.081L242.171 322.553C242.134 322.574 242.092 322.585 242.05 322.585C242.007 322.585 241.965 322.574 241.929 322.553L241.753 322.418C241.684 322.363 241.599 322.33 241.511 322.324C241.338 322.343 241.171 322.403 241.026 322.499C240.814 322.626 240.627 322.791 240.473 322.984C240.31 323.196 240.225 323.457 240.231 323.725C240.212 323.827 240.212 323.932 240.231 324.035C240.256 324.073 240.29 324.105 240.33 324.128C240.37 324.151 240.414 324.166 240.46 324.17C240.607 324.194 240.757 324.194 240.904 324.17L241.659 324.035C242.292 323.914 242.724 324.035 243.007 324.385C243.304 324.885 243.44 325.463 243.397 326.043C243.394 326.443 243.34 326.842 243.236 327.229C243.129 327.649 242.975 328.056 242.778 328.441C242.58 328.84 242.33 329.212 242.036 329.546C241.757 329.874 241.425 330.152 241.053 330.368C240.756 330.558 240.419 330.673 240.069 330.705C239.816 330.714 239.566 330.644 239.355 330.503C239.147 330.361 238.987 330.159 238.897 329.924C238.788 329.668 238.733 329.393 238.735 329.115C238.722 328.975 238.75 328.835 238.816 328.711C238.849 328.6 238.92 328.504 239.018 328.441L239.826 327.97C239.934 327.97 240.015 327.902 240.069 327.97L240.244 328.158C240.28 328.199 240.323 328.231 240.372 328.254C240.421 328.278 240.473 328.291 240.527 328.293C240.717 328.294 240.902 328.233 241.053 328.118C241.296 327.98 241.515 327.802 241.7 327.592C241.791 327.482 241.868 327.359 241.929 327.229C242.024 327.122 242.089 326.992 242.117 326.851Z" fill="#FAFAFA"/>
<path d="M244.866 323.199C244.864 322.499 244.922 321.8 245.041 321.111C245.154 320.461 245.33 319.825 245.567 319.21C245.765 318.66 246.037 318.138 246.376 317.661C246.658 317.25 247.026 316.905 247.454 316.65C247.766 316.44 248.147 316.358 248.518 316.421C248.847 316.497 249.136 316.694 249.327 316.974C249.58 317.339 249.759 317.751 249.852 318.186C249.982 318.752 250.045 319.331 250.041 319.911V320.747C250.045 320.887 250.013 321.027 249.947 321.151C249.914 321.262 249.842 321.358 249.744 321.42L246.241 323.455C246.232 323.693 246.264 323.929 246.335 324.156C246.387 324.309 246.481 324.444 246.605 324.547C246.715 324.635 246.855 324.678 246.995 324.668C247.158 324.649 247.315 324.594 247.454 324.506C247.657 324.396 247.84 324.25 247.993 324.075C248.131 323.92 248.248 323.748 248.343 323.563C248.401 323.457 248.464 323.353 248.532 323.253C248.59 323.185 248.658 323.126 248.734 323.078L249.569 322.593C249.598 322.57 249.634 322.557 249.67 322.557C249.707 322.557 249.743 322.57 249.771 322.593C249.807 322.635 249.832 322.685 249.846 322.739C249.86 322.792 249.862 322.848 249.852 322.903C249.838 323.166 249.783 323.425 249.691 323.671C249.574 324.045 249.421 324.406 249.232 324.749C249.022 325.144 248.769 325.514 248.478 325.854C248.188 326.201 247.842 326.497 247.454 326.73C247.135 326.938 246.754 327.029 246.376 326.986C246.044 326.906 245.755 326.704 245.567 326.42C245.302 326.011 245.123 325.553 245.041 325.072C244.919 324.456 244.86 323.828 244.866 323.199ZM247.454 318.901C247.246 319.012 247.067 319.169 246.928 319.359C246.779 319.547 246.656 319.756 246.564 319.979C246.47 320.201 246.393 320.431 246.335 320.666C246.288 320.879 246.256 321.095 246.241 321.313L248.612 319.965C248.599 319.779 248.572 319.595 248.532 319.413C248.511 319.25 248.446 319.096 248.343 318.968C248.303 318.91 248.251 318.861 248.19 318.823C248.13 318.786 248.063 318.762 247.993 318.752C247.801 318.736 247.61 318.789 247.454 318.901Z" fill="#FAFAFA"/>
<path d="M254.272 315.141C253.864 315.374 253.542 315.733 253.356 316.165C253.146 316.734 253.05 317.338 253.073 317.944V322.809C253.075 322.948 253.047 323.085 252.992 323.213C252.959 323.324 252.887 323.42 252.79 323.482L251.995 323.941C251.982 323.955 251.967 323.966 251.949 323.974C251.932 323.982 251.913 323.986 251.894 323.986C251.875 323.986 251.856 323.982 251.838 323.974C251.821 323.966 251.805 323.955 251.793 323.941C251.733 323.849 251.704 323.74 251.712 323.631V314.912C251.713 314.773 251.74 314.636 251.793 314.508C251.831 314.399 251.901 314.305 251.995 314.238L252.79 313.78C252.817 313.754 252.854 313.74 252.891 313.74C252.929 313.74 252.965 313.754 252.992 313.78C253.055 313.865 253.083 313.971 253.073 314.076V314.508C253.234 314.146 253.432 313.803 253.666 313.483C253.879 313.188 254.155 312.944 254.474 312.769L254.96 312.486C254.985 312.462 255.019 312.448 255.054 312.448C255.089 312.448 255.123 312.462 255.148 312.486C255.213 312.576 255.247 312.685 255.243 312.796V314.022C255.24 314.162 255.208 314.3 255.148 314.427C255.114 314.534 255.048 314.628 254.96 314.696L254.272 315.141Z" fill="#FAFAFA"/>
<path d="M264.325 314.494C264.338 314.48 264.353 314.468 264.371 314.46C264.388 314.453 264.407 314.448 264.426 314.448C264.445 314.448 264.464 314.453 264.482 314.46C264.499 314.468 264.515 314.48 264.527 314.494C264.588 314.586 264.616 314.695 264.608 314.804V316.152C264.608 316.29 264.58 316.428 264.527 316.556C264.481 316.656 264.412 316.744 264.325 316.812L259.717 319.507C259.689 319.533 259.653 319.547 259.615 319.547C259.578 319.547 259.542 319.533 259.514 319.507C259.454 319.421 259.426 319.316 259.434 319.211V307.083C259.434 306.944 259.462 306.807 259.514 306.678C259.552 306.573 259.623 306.483 259.717 306.422L260.566 305.924C260.593 305.898 260.629 305.884 260.667 305.884C260.704 305.884 260.74 305.898 260.768 305.924C260.828 306.01 260.856 306.115 260.848 306.22V316.475L264.325 314.494Z" fill="#FAFAFA"/>
<path d="M268.462 304.522C268.766 304.312 269.132 304.212 269.5 304.239C269.815 304.264 270.109 304.409 270.322 304.643C270.573 304.932 270.757 305.272 270.861 305.641C271.005 306.118 271.086 306.611 271.103 307.109C271.103 307.217 271.103 307.365 271.103 307.541V308.578C271.103 308.74 271.103 308.888 271.103 309.009C271.077 309.595 270.996 310.177 270.861 310.748C270.736 311.304 270.556 311.845 270.322 312.365C270.108 312.848 269.832 313.301 269.5 313.712C269.216 314.085 268.864 314.4 268.462 314.642C268.15 314.845 267.782 314.944 267.411 314.925C267.1 314.898 266.811 314.754 266.603 314.521C266.344 314.243 266.159 313.905 266.063 313.537C265.92 313.06 265.838 312.566 265.821 312.068C265.821 311.961 265.821 311.826 265.821 311.651V310.613C265.821 310.438 265.821 310.29 265.821 310.182C265.837 309.592 265.913 309.004 266.05 308.43C266.181 307.87 266.366 307.324 266.603 306.799C266.817 306.319 267.088 305.867 267.411 305.452C267.697 305.076 268.054 304.76 268.462 304.522ZM269.729 307.999C269.728 307.701 269.678 307.405 269.581 307.123C269.531 306.951 269.427 306.8 269.284 306.692C269.169 306.615 269.031 306.581 268.893 306.597C268.739 306.626 268.593 306.686 268.462 306.772C268.304 306.859 268.159 306.968 268.031 307.096C267.876 307.257 267.745 307.438 267.64 307.635C267.505 307.88 267.405 308.143 267.344 308.416C267.255 308.761 267.201 309.113 267.182 309.468C267.182 309.575 267.182 309.697 267.182 309.845V310.802C267.182 310.95 267.182 311.071 267.182 311.152C267.195 311.45 267.249 311.745 267.344 312.028C267.393 312.2 267.497 312.352 267.64 312.459C267.696 312.499 267.76 312.526 267.827 312.54C267.894 312.554 267.964 312.554 268.031 312.54C268.184 312.514 268.33 312.459 268.462 312.378C268.618 312.288 268.763 312.18 268.893 312.055C269.044 311.891 269.175 311.71 269.284 311.516C269.414 311.268 269.513 311.006 269.581 310.734C269.669 310.39 269.718 310.038 269.729 309.683C269.737 309.558 269.737 309.432 269.729 309.306V308.363C269.737 308.241 269.737 308.12 269.729 307.999Z" fill="#FAFAFA"/>
<path d="M275.227 312.405C275.399 312.3 275.554 312.168 275.685 312.014C275.847 311.824 275.987 311.616 276.103 311.395C276.237 311.124 276.341 310.839 276.413 310.546C276.496 310.215 276.536 309.876 276.534 309.535V308.848C276.534 308.982 276.399 309.144 276.305 309.333C276.213 309.53 276.104 309.719 275.982 309.899C275.841 310.088 275.688 310.268 275.523 310.438C275.354 310.615 275.159 310.765 274.944 310.883C274.805 310.977 274.649 311.042 274.485 311.075C274.32 311.107 274.151 311.106 273.987 311.071C273.688 310.977 273.43 310.782 273.259 310.519C273.04 310.171 272.88 309.788 272.788 309.387C272.673 308.878 272.61 308.359 272.599 307.837C272.599 307.662 272.599 307.446 272.599 307.19C272.599 306.934 272.599 306.719 272.599 306.53C272.616 305.937 272.679 305.347 272.788 304.765C272.898 304.191 273.056 303.628 273.259 303.08C273.45 302.605 273.694 302.153 273.987 301.733C274.236 301.361 274.562 301.048 274.944 300.816C275.123 300.708 275.319 300.631 275.523 300.587C275.675 300.559 275.83 300.559 275.982 300.587C276.101 300.621 276.211 300.681 276.305 300.762C276.391 300.828 276.468 300.905 276.534 300.991V300.56C276.535 300.421 276.562 300.284 276.615 300.156C276.653 300.051 276.724 299.961 276.817 299.9L277.612 299.428C277.64 299.403 277.676 299.388 277.713 299.388C277.751 299.388 277.787 299.403 277.814 299.428C277.879 299.518 277.912 299.627 277.909 299.738V308.497C277.945 309.809 277.701 311.114 277.194 312.324C276.797 313.276 276.108 314.078 275.227 314.615C274.926 314.802 274.583 314.909 274.23 314.925C273.95 314.942 273.672 314.871 273.435 314.723C273.207 314.553 273.022 314.331 272.896 314.076C272.764 313.769 272.691 313.44 272.68 313.106C272.667 312.966 272.695 312.826 272.761 312.702C272.794 312.591 272.866 312.495 272.963 312.432L273.677 312.028C273.694 312.01 273.713 311.996 273.735 311.987C273.757 311.977 273.781 311.972 273.805 311.972C273.829 311.972 273.853 311.977 273.875 311.987C273.897 311.996 273.917 312.01 273.933 312.028C274 312.098 274.058 312.175 274.108 312.257C274.19 312.402 274.326 312.508 274.486 312.554C274.647 312.675 274.89 312.54 275.227 312.405ZM273.96 305.87C273.96 306.229 273.96 306.579 273.96 306.921C273.922 307.459 274.074 307.993 274.391 308.43C274.511 308.533 274.664 308.59 274.823 308.59C274.981 308.59 275.134 308.533 275.254 308.43C275.645 308.176 275.95 307.809 276.13 307.379C276.375 306.817 276.512 306.213 276.534 305.6C276.534 305.398 276.534 305.155 276.534 304.872C276.534 304.589 276.534 304.347 276.534 304.172C276.561 303.689 276.418 303.212 276.13 302.824C276.01 302.714 275.854 302.653 275.692 302.653C275.53 302.653 275.373 302.714 275.254 302.824C274.87 303.077 274.57 303.438 274.391 303.862C274.115 304.495 273.968 305.178 273.96 305.87Z" fill="#FAFAFA"/>
<path d="M281.048 293.903C281.075 293.881 281.108 293.869 281.143 293.869C281.177 293.869 281.21 293.881 281.237 293.903C281.308 293.99 281.341 294.102 281.331 294.213V295.682C281.332 295.822 281.3 295.961 281.237 296.086C281.199 296.188 281.134 296.276 281.048 296.342L280.146 296.868C280.133 296.882 280.117 296.894 280.1 296.902C280.082 296.909 280.064 296.914 280.044 296.914C280.025 296.914 280.006 296.909 279.989 296.902C279.972 296.894 279.956 296.882 279.943 296.868C279.908 296.828 279.882 296.78 279.865 296.729C279.849 296.678 279.844 296.625 279.849 296.571V295.103C279.848 294.962 279.88 294.824 279.943 294.698C279.981 294.593 280.052 294.503 280.146 294.442L281.048 293.903ZM281.277 306.557C281.278 306.691 281.25 306.824 281.197 306.948C281.154 307.054 281.084 307.146 280.994 307.217L280.186 307.675C280.175 307.689 280.16 307.701 280.144 307.709C280.128 307.716 280.11 307.72 280.092 307.72C280.074 307.72 280.056 307.716 280.039 307.709C280.023 307.701 280.009 307.689 279.997 307.675C279.927 307.588 279.893 307.477 279.903 307.365V298.647C279.902 298.506 279.934 298.368 279.997 298.242C280.035 298.138 280.1 298.045 280.186 297.973L280.994 297.515C281.022 297.489 281.058 297.475 281.096 297.475C281.133 297.475 281.169 297.489 281.197 297.515C281.257 297.601 281.285 297.706 281.277 297.811V306.557Z" fill="#FAFAFA"/>
<path d="M288.366 302.447C288.365 302.585 288.338 302.723 288.285 302.851C288.247 302.956 288.176 303.046 288.083 303.107L287.274 303.579C287.249 303.603 287.215 303.617 287.18 303.617C287.145 303.617 287.111 303.603 287.086 303.579C287.015 303.492 286.981 303.38 286.991 303.269V298.525C287.033 297.965 286.931 297.404 286.695 296.895C286.506 296.558 286.21 296.504 285.792 296.747C285.375 297.027 285.066 297.44 284.916 297.919C284.691 298.555 284.582 299.226 284.593 299.9V304.657C284.592 304.795 284.564 304.933 284.512 305.061C284.479 305.172 284.407 305.268 284.31 305.331L283.515 305.789C283.502 305.803 283.486 305.815 283.469 305.822C283.452 305.83 283.433 305.834 283.413 305.834C283.394 305.834 283.375 305.83 283.358 305.822C283.341 305.815 283.325 305.803 283.312 305.789C283.25 305.703 283.221 305.598 283.232 305.492V296.773C283.23 296.635 283.257 296.497 283.312 296.369C283.345 296.258 283.417 296.163 283.515 296.1L284.31 295.642C284.322 295.627 284.338 295.616 284.355 295.608C284.373 295.6 284.392 295.596 284.411 295.596C284.43 295.596 284.449 295.6 284.466 295.608C284.484 295.616 284.499 295.627 284.512 295.642C284.572 295.733 284.6 295.842 284.593 295.951V296.369C284.77 295.958 284.987 295.566 285.239 295.197C285.461 294.857 285.762 294.575 286.115 294.375C286.422 294.151 286.804 294.054 287.18 294.105C287.329 294.143 287.469 294.211 287.589 294.307C287.71 294.402 287.809 294.522 287.881 294.658C288.076 295.023 288.204 295.42 288.258 295.83C288.33 296.366 288.366 296.906 288.366 297.447V302.447Z" fill="#FAFAFA"/>
<path d="M356.337 263.219L343.252 270.766L345.287 252.412C343.71 251.576 342.713 249.541 342.713 246.617C342.713 241.402 345.893 235.352 349.801 233.142C353.709 230.932 356.876 233.276 356.876 238.532C356.795 241.624 355.913 244.642 354.316 247.291L356.337 263.219Z" fill="#BDBEBE"/>
<path d="M356.351 263.219L344.829 256.576L343.252 270.779L356.351 263.219Z" fill="white"/>
<path d="M349.774 233.101C346.925 235.026 344.8 237.848 343.737 241.119L354.289 247.21C355.886 244.561 356.768 241.543 356.849 238.451C356.876 233.236 353.709 230.851 349.774 233.101Z" fill="white"/>
<path d="M286.169 171.989C281.682 169.402 275.496 169.765 268.651 173.714C254.986 181.61 243.909 200.786 243.909 216.566C243.909 224.49 246.712 230.042 251.213 232.602L259.932 237.669C264.406 240.257 270.591 239.879 277.45 235.931C291.115 228.048 302.192 208.858 302.192 193.078C302.192 185.195 299.416 179.603 294.942 177.083" fill="#175873"/>
<path d="M277.437 178.794C263.773 186.691 252.696 205.88 252.696 221.647C252.696 237.413 263.773 243.828 277.437 235.931C291.101 228.034 302.192 208.858 302.178 193.078C302.165 177.298 291.088 170.911 277.437 178.794Z" fill="#175873"/>
<path d="M291.088 213.804V215.61C287.814 221.453 283.119 226.375 277.437 229.921C272.114 232.98 267.303 233.317 263.773 231.363V227.644C263.953 223.774 265.058 220.004 266.995 216.649C268.931 213.294 271.643 210.452 274.903 208.36L278.501 206.285C281.682 204.452 284.781 204.209 287.207 205.624C289.632 207.039 291.088 210.017 291.088 213.804Z" fill="#175873"/>
<path opacity="0.4" d="M286.169 171.989L294.928 177.083C290.454 174.482 284.269 174.846 277.41 178.794C268.462 183.969 260.619 193.981 256.28 204.708L247.508 199.627C251.86 188.847 259.636 178.888 268.637 173.714C275.51 169.779 281.695 169.402 286.169 171.989Z" fill="white"/>
<path opacity="0.2" d="M259.622 237.467L251.227 232.602C246.726 230.042 243.923 224.517 243.923 216.566L252.696 221.66C252.75 229.341 255.337 234.812 259.622 237.467Z" fill="black"/>
<path opacity="0.1" d="M247.535 199.628L256.307 204.708C254.059 210.078 252.852 215.826 252.75 221.647L243.977 216.553C244.085 210.737 245.292 204.995 247.535 199.628Z" fill="black"/>
<path d="M274.311 205.436C273.475 205.445 272.651 205.231 271.925 204.816C271.05 204.233 270.349 203.424 269.896 202.475C269.443 201.526 269.255 200.472 269.352 199.425C269.466 196.97 270.167 194.578 271.395 192.449C272.624 190.321 274.344 188.517 276.413 187.19C277.244 186.526 278.255 186.129 279.316 186.05C280.376 185.971 281.436 186.214 282.356 186.747C283.276 187.279 284.014 188.078 284.473 189.037C284.932 189.996 285.091 191.071 284.929 192.122C284.813 194.576 284.111 196.968 282.883 199.096C281.655 201.225 279.935 203.028 277.868 204.358C276.798 205.025 275.571 205.397 274.311 205.436Z" fill="white"/>
<path d="M287.207 205.611C284.781 204.196 281.682 204.438 278.501 206.271L274.903 208.346C271.641 210.44 268.928 213.284 266.992 216.642C265.055 219.999 263.951 223.772 263.773 227.644V231.376C267.303 233.33 272.114 232.993 277.437 229.934C283.119 226.389 287.814 221.466 291.088 215.623V213.817C291.088 210.017 289.686 207.039 287.207 205.611Z" fill="white"/>
<path d="M564.239 438.74C564.239 438.74 566.032 423 573.861 410.778C581.69 398.555 592.444 390.942 602.483 390.146C612.523 389.351 620.635 398.596 609.895 404.97C599.155 411.344 580.073 417.785 571.287 441.502L564.239 438.74Z" fill="#5A9CB8"/>
<path opacity="0.1" d="M564.239 438.74C564.239 438.74 566.032 423 573.861 410.778C581.69 398.555 592.444 390.942 602.483 390.146C612.523 389.351 620.635 398.596 609.895 404.97C599.155 411.344 580.073 417.785 571.287 441.502L564.239 438.74Z" fill="black"/>
<path d="M567.19 434.643H567.083C566.951 434.589 566.845 434.485 566.79 434.354C566.734 434.223 566.733 434.075 566.786 433.942C577.378 407.867 597.538 396.965 606.728 394.863C606.797 394.847 606.869 394.845 606.938 394.857C607.008 394.868 607.075 394.894 607.135 394.931C607.195 394.969 607.247 395.018 607.288 395.075C607.33 395.133 607.359 395.198 607.375 395.267C607.391 395.336 607.393 395.408 607.381 395.478C607.37 395.547 607.344 395.614 607.307 395.674C607.269 395.734 607.22 395.787 607.162 395.828C607.105 395.869 607.04 395.898 606.971 395.914C597.969 397.989 578.2 408.689 567.783 434.36C567.731 434.468 567.644 434.554 567.537 434.606C567.429 434.657 567.307 434.67 567.19 434.643Z" fill="white"/>
<path d="M620.797 434.953C619.894 437.001 617.657 438.079 615.582 438.915C613.506 439.75 611.242 440.653 610.11 442.594C607.847 446.502 611.566 452.027 609.14 455.813C608.569 456.576 607.85 457.215 607.025 457.692C606.201 458.169 605.288 458.474 604.343 458.589C602.793 458.872 601.217 458.872 599.653 459.007C598.905 458.997 598.157 458.939 597.416 458.832C595.239 458.346 592.962 458.587 590.935 459.519C587.822 461.271 586.892 465.192 584.978 468.224C583.809 470.01 582.269 471.521 580.461 472.656C578.654 473.791 576.624 474.523 574.508 474.801C573.16 474.976 570.465 475.232 569.118 474.437C569.012 474.385 568.913 474.322 568.821 474.248C568.619 474.032 568.376 473.749 568.269 473.601C568.262 473.57 568.262 473.538 568.269 473.507C567.716 471.472 568.619 469.37 568.659 467.268V466.89C568.565 464.451 568.498 462.026 568.444 459.6C568.327 455.108 568.282 450.616 568.309 446.124C568.309 443.214 567.986 440.033 569.225 437.298C570.573 434.279 573.969 434.212 575.249 431.261C575.761 430.075 576.031 428.822 576.529 427.622C577.3 425.879 578.534 424.38 580.097 423.289C581.661 422.199 583.494 421.558 585.396 421.437C591.312 421.14 596.608 425.924 602.524 425.48C604.046 425.358 605.542 424.887 607.052 424.617C611.835 423.714 617.374 425.075 620.069 429.132C620.66 429.967 621.036 430.935 621.163 431.951C621.29 432.967 621.164 433.998 620.797 434.953Z" fill="#5A9CB8"/>
<path d="M567.676 464.168C567.548 464.131 567.44 464.045 567.375 463.929C567.31 463.813 567.292 463.677 567.325 463.548C575.491 432.905 607.752 428.512 615.339 429.024C615.406 429.027 615.471 429.044 615.531 429.073C615.591 429.102 615.645 429.143 615.689 429.193C615.733 429.244 615.766 429.302 615.787 429.366C615.808 429.429 615.816 429.496 615.811 429.563C615.797 429.694 615.733 429.815 615.633 429.9C615.533 429.985 615.403 430.029 615.272 430.021C607.873 429.495 576.287 433.821 568.295 463.818C568.258 463.945 568.172 464.053 568.056 464.118C567.941 464.184 567.804 464.202 567.676 464.168Z" fill="white"/>
<path d="M603.561 448.644C603.459 448.63 603.365 448.583 603.292 448.509C600.309 445.925 596.793 444.03 592.994 442.961C589.194 441.892 585.206 441.674 581.313 442.324C581.182 442.336 581.051 442.299 580.946 442.219C580.841 442.139 580.77 442.023 580.747 441.893C580.728 441.761 580.76 441.626 580.838 441.518C580.916 441.41 581.033 441.337 581.165 441.313C585.225 440.638 589.384 440.868 593.345 441.989C597.306 443.11 600.969 445.092 604.073 447.795C604.121 447.842 604.159 447.897 604.185 447.959C604.211 448.02 604.224 448.086 604.224 448.152C604.224 448.219 604.211 448.285 604.185 448.346C604.159 448.407 604.121 448.463 604.073 448.509C604.013 448.582 603.931 448.634 603.839 448.658C603.747 448.682 603.65 448.677 603.561 448.644Z" fill="white"/>
<path d="M490.083 68.6306L494.368 70.2746V60.8417C494.368 53.3492 500.338 51.557 506.82 55.3032C513.315 59.0494 518.57 68.1455 518.57 75.638V76.9855C519.474 76.7095 520.428 76.6413 521.361 76.786C522.294 76.9307 523.183 77.2845 523.961 77.821C526.422 79.4259 528.47 81.5888 529.938 84.134C531.406 86.6793 532.253 89.535 532.41 92.4691V93.0889L538.393 96.5387C540.012 97.5953 541.359 99.0181 542.326 100.692C543.293 102.366 543.852 104.244 543.958 106.174C543.958 109.731 541.465 111.173 538.393 109.394L490.083 81.4864C488.463 80.4322 487.115 79.0098 486.15 77.3352C485.185 75.6606 484.63 73.7814 484.531 71.8513C484.531 68.3072 486.997 66.8653 490.083 68.6306Z" fill="#E6E6E6"/>
<path d="M547.475 61.1649L555.251 65.6523C555.208 65.3126 555.186 64.9706 555.183 64.6282V62.3778C555.183 58.3351 557.986 56.7449 561.463 58.7528C562.957 59.6675 564.235 60.895 565.209 62.3508C565.775 57.3109 569.737 55.4378 574.535 58.2003C577.276 59.9841 579.559 62.3887 581.198 65.2193C582.836 68.0498 583.785 71.2267 583.968 74.4924V77.8613C584.002 79.2074 583.73 80.5437 583.172 81.7692L589.641 85.4885C590.649 86.1571 591.486 87.0527 592.085 88.1035C592.684 89.1544 593.029 90.331 593.091 91.5391C593.091 93.7626 591.527 94.6654 589.6 93.5604L547.475 69.3042C546.457 68.6404 545.609 67.745 545.003 66.691C544.396 65.6371 544.047 64.4546 543.985 63.2402C543.985 60.9628 545.548 60.0599 547.475 61.1649Z" fill="#E6E6E6"/>
<path d="M517.371 265.685C511.711 275.253 506.267 283.567 502.44 287.556C495.177 290.925 478.116 296.127 471.446 296.989C470.274 297.138 469.088 296.861 468.104 296.208C465.476 294.483 463.441 294.2 460.679 293.243C458.509 292.502 457.593 291.464 457.189 291.895C456.771 292.385 456.561 293.018 456.604 293.66C456.647 294.302 456.939 294.902 457.418 295.332C458.454 296.316 459.603 297.176 460.841 297.892C457.882 298.626 454.795 298.681 451.812 298.054C446.031 296.531 443.309 299.307 447.217 305.587C448.564 307.824 454.116 311.422 465.274 310.451C469.255 310.237 473.219 309.787 477.146 309.104C487.846 306.813 499.745 304.603 507.062 302.366C509.784 301.296 512.22 299.607 514.177 297.434C526.48 283.406 530.564 273.407 535.954 264.324L535.496 249.501C526.763 249.205 522.101 257.681 517.371 265.685Z" fill="#FFA8A7"/>
<path d="M536.992 249.204C534.46 248.849 531.878 249.191 529.527 250.196C527.176 251.201 525.144 252.829 523.651 254.905C517.668 262.572 507.076 280.98 507.076 280.98C507.076 280.98 510.539 290.211 519.891 291.761L534.916 271.466C534.916 271.466 542.032 257.371 536.992 249.204Z" fill="#455A64"/>
<path d="M569.481 456.11H559.685V473.574H569.481V456.11Z" fill="#FFA8A7"/>
<path d="M535.523 455.18L525.739 455.53L525.241 437.042L535.523 436.691V455.18Z" fill="#FFA8A7"/>
<path d="M570.856 304.926C570.856 314.656 569.428 393.044 569.428 393.044C569.643 395.847 572.123 401.021 571.624 411.788C570.883 426.409 569.899 464.842 569.899 464.842C568.217 465.703 566.362 466.169 564.473 466.207C562.584 466.244 560.712 465.851 558.997 465.058C558.997 465.058 551.047 411.155 549.295 396.723C547.759 384.069 543.824 342.187 543.824 342.187L538.528 391.696C539.651 397.008 540.058 402.447 539.741 407.867C539.282 414.605 536.129 449.48 536.129 449.48C534.437 450.478 532.539 451.078 530.58 451.235C528.621 451.391 526.653 451.1 524.823 450.383C524.823 450.383 519.244 397.827 519.136 391.656C519.002 384.648 522.397 304.845 522.397 304.845L570.856 304.926Z" fill="#AEBFC7"/>
<path d="M559.685 468.534V467.079C558.741 467.497 556.572 476.148 552.677 479.84C549.591 482.778 545.387 486.16 544.309 489.435C543.231 492.71 550.171 494.718 553.068 494.192C556.41 493.572 562.231 491.106 563.687 488.802C565.142 486.497 565.829 483.155 567.015 481.484C568.201 479.813 570.937 477.954 571.57 476.013C571.768 474.198 571.579 472.361 571.018 470.623C570.559 468.817 570.074 466.836 569.481 467.012V468.117C568.1 469.25 566.363 469.861 564.576 469.841C563.148 469.963 559.671 469.666 559.685 468.534Z" fill="#263238"/>
<path d="M525.632 452.377C525.12 452.377 524.702 453.145 523.583 454.412C521.92 456.161 519.975 457.619 517.829 458.724C514.164 460.637 507.049 463.575 503.801 465.098C501.78 466.041 501.874 468.575 503.963 470.017C506.051 471.458 511.078 472.496 517.115 471.095C520.403 470.326 524.688 467.16 527.41 467.335C530.132 467.51 535.186 467.456 537.194 465.987C539.202 464.518 538.393 461.473 537.827 458.845C537.207 455.961 536.479 451.474 535.523 451.676V452.687C534.35 454.546 528.273 455.301 525.686 453.94L525.632 452.377Z" fill="#263238"/>
<path d="M543.824 342.186C538.728 340.518 534.068 337.733 530.186 334.034C530.186 334.034 532.882 339.168 540.644 343.952L538.973 388.165L543.824 342.186Z" fill="#263238"/>
<path d="M565.385 250.633C565.385 250.633 573.47 252.493 572.891 267.1L571.206 290.346V325.248C564.01 333.414 532.127 332.821 521.144 324.601C521.144 324.601 522.384 283.298 523.125 267.397C523.651 256.104 526.251 250.417 537.355 249.177L551.006 249.77L565.385 250.633Z" fill="#175873"/>
<path d="M555.089 220.286C555.136 222.241 554.795 224.187 554.086 226.01C553.377 227.833 552.314 229.498 550.959 230.909C549.603 232.319 547.982 233.447 546.189 234.229C544.395 235.01 542.465 235.428 540.509 235.459C532.423 235.459 527.68 228.479 525.928 220.286C522.694 205.287 532.45 205.099 540.509 205.099C544.456 205.18 548.209 206.826 550.943 209.673C553.678 212.521 555.169 216.339 555.089 220.286Z" fill="#263238"/>
<path d="M562.528 226.417C562.528 226.417 560.291 237.359 559.388 239.165C558.82 240.252 557.855 241.077 556.693 241.469L556.855 233.775L562.528 226.417Z" fill="#263238"/>
<path d="M559.712 210.745C559.712 210.745 561.315 210.341 563.027 213.009C564.482 215.286 564.819 220.407 562.528 226.485L558.31 226.997L559.712 210.745Z" fill="#263238"/>
<path d="M561.261 212.968L566.436 213.063C566.471 212.728 566.437 212.39 566.336 212.07C566.234 211.749 566.068 211.453 565.846 211.2C565.625 210.947 565.353 210.742 565.049 210.599C564.745 210.456 564.414 210.377 564.078 210.368C563.37 210.378 562.692 210.649 562.172 211.129C561.652 211.609 561.328 212.264 561.261 212.968Z" fill="#263238"/>
<path d="M561.895 211.742L565.722 208.063C565.501 207.803 565.229 207.592 564.923 207.442C564.616 207.293 564.282 207.208 563.942 207.194C563.601 207.181 563.261 207.237 562.944 207.361C562.626 207.485 562.338 207.674 562.097 207.915C561.589 208.411 561.287 209.08 561.249 209.789C561.212 210.498 561.442 211.195 561.895 211.742Z" fill="#263238"/>
<path d="M557.043 226.929C557.892 227.455 559.092 225.77 560.143 224.625C561.194 223.479 564.455 222.428 566.153 226.148C567.851 229.867 564.953 233.546 562.528 234.758C558.175 236.915 556.801 233.775 556.801 233.775L556.437 251.104C550.319 260.537 536.439 260.241 541.438 250.646V245.377C539.382 245.719 537.293 245.828 535.213 245.701C531.817 245.162 529.688 242.372 528.65 238.545C527.006 232.4 526.373 227.441 527.774 215.354C529.31 202.12 544.107 201.972 552.03 207.268C559.954 212.564 557.043 226.929 557.043 226.929Z" fill="#FFA8A7"/>
<path d="M538.609 213.292C542.139 212.941 545.629 212.214 549.174 211.944C549.938 211.852 550.712 211.888 551.464 212.052C554.16 212.793 553.836 215.946 554.267 218.143C555.009 221.943 555.615 228.371 557.043 228.398C557.475 228.398 559.092 225.609 560.143 224.611C560.721 223.752 561.047 222.749 561.086 221.714C561.356 220.151 561.49 218.547 561.612 216.957C561.719 215.61 561.854 214.262 561.854 212.914C561.916 211.392 561.794 209.867 561.49 208.373C561.152 207.102 560.504 205.936 559.604 204.977L559.334 204.681C557.558 202.824 555.402 201.371 553.014 200.423C549.578 199.135 545.975 198.35 542.314 198.091C538.66 197.832 535.021 197.383 531.413 196.744C531.206 196.683 530.986 196.683 530.779 196.744C530.633 196.825 530.509 196.941 530.42 197.082C530.33 197.224 530.278 197.385 530.267 197.552C530.119 198.39 530.212 199.252 530.534 200.039C530.856 200.826 531.394 201.505 532.086 201.999C529.647 202.188 526.844 200.921 524.5 200.274C524.31 200.194 524.106 200.152 523.9 200.152C523.694 200.152 523.49 200.194 523.3 200.274C523.065 200.439 522.898 200.683 522.829 200.962C522.658 201.595 522.635 202.259 522.761 202.902C522.976 204.852 523.701 206.712 524.863 208.292C526.68 210.657 529.246 212.334 532.14 213.049C534.271 213.46 536.453 213.542 538.609 213.292Z" fill="#263238"/>
<path d="M541.452 245.377C541.452 245.377 549.025 243.787 551.667 242.318C553.24 241.458 554.517 240.143 555.332 238.545C554.934 240.15 554.225 241.661 553.243 242.992C551.316 245.579 541.452 247.466 541.452 247.466V245.377Z" fill="#F28F8F"/>
<path d="M543.271 224.948C543.257 225.364 543.407 225.769 543.69 226.075C543.973 226.38 544.365 226.561 544.781 226.579C545.111 226.606 545.441 226.533 545.729 226.369C546.017 226.205 546.248 225.958 546.393 225.66C546.538 225.362 546.59 225.027 546.542 224.7C546.493 224.372 546.347 224.067 546.122 223.824C545.897 223.581 545.604 223.411 545.281 223.337C544.958 223.264 544.62 223.29 544.312 223.411C544.004 223.533 543.739 223.745 543.554 224.019C543.368 224.293 543.27 224.617 543.271 224.948Z" fill="#263238"/>
<path d="M545.697 218.413L548.944 220.286C549.181 219.824 549.234 219.29 549.094 218.791C548.955 218.291 548.632 217.863 548.19 217.591C547.974 217.47 547.736 217.395 547.491 217.371C547.245 217.348 546.997 217.375 546.762 217.452C546.528 217.53 546.312 217.655 546.128 217.82C545.945 217.986 545.798 218.187 545.697 218.413Z" fill="#263238"/>
<path d="M542.126 235.877L538.663 237.225C538.732 237.462 538.85 237.683 539.008 237.873C539.167 238.063 539.363 238.219 539.584 238.33C539.805 238.441 540.047 238.506 540.294 238.519C540.541 238.533 540.789 238.496 541.021 238.411C541.492 238.207 541.869 237.833 542.074 237.362C542.279 236.892 542.298 236.361 542.126 235.877Z" fill="#F28F8F"/>
<path d="M529.337 219.801L532.302 217.429C532.169 217.222 531.994 217.045 531.789 216.91C531.583 216.775 531.351 216.685 531.108 216.646C530.866 216.606 530.617 216.619 530.379 216.681C530.142 216.744 529.92 216.857 529.728 217.011C529.332 217.347 529.073 217.817 529.001 218.331C528.929 218.846 529.049 219.369 529.337 219.801Z" fill="#263238"/>
<path d="M530.645 224.504C530.668 224.799 530.777 225.08 530.958 225.314C531.139 225.548 531.384 225.724 531.664 225.821C531.943 225.918 532.245 225.931 532.532 225.86C532.819 225.788 533.079 225.634 533.28 225.417C533.481 225.2 533.614 224.929 533.664 224.638C533.713 224.346 533.677 224.046 533.559 223.775C533.441 223.504 533.246 223.273 532.999 223.11C532.752 222.948 532.463 222.861 532.167 222.86C531.959 222.867 531.754 222.915 531.565 223.001C531.375 223.088 531.205 223.211 531.063 223.364C530.921 223.517 530.812 223.696 530.74 223.892C530.668 224.088 530.636 224.295 530.645 224.504Z" fill="#263238"/>
<path d="M538.77 223.237L538.595 232.818L533.151 231.578L538.77 223.237Z" fill="#F28F8F"/>
<path d="M409.485 303.484L417.934 298.606L421.276 294.55L412.84 299.428L409.485 303.484Z" fill="#175873"/>
<path opacity="0.4" d="M409.485 303.484L417.934 298.606L421.276 294.55L412.84 299.428L409.485 303.484Z" fill="black"/>
<path d="M432.461 316.744L440.91 311.866L447.958 305.627L439.522 310.492L432.461 316.744Z" fill="#175873"/>
<path opacity="0.4" d="M432.461 316.744L440.91 311.866L447.958 305.627L439.522 310.492L432.461 316.744Z" fill="black"/>
<path d="M504.232 333.576C506.23 336.254 507.439 339.437 507.723 342.766C505.733 340.083 504.525 336.902 504.232 333.576ZM523.866 333.832C521.023 314.494 510.633 295.372 498.263 288.217C492.32 284.78 486.822 284.659 482.415 287.233L474.465 291.815L474.02 292.084C473.666 292.279 473.324 292.495 472.996 292.731C472.343 293.18 471.729 293.685 471.163 294.24L470.894 294.496C470.651 294.739 470.395 295.022 470.166 295.291C469.937 295.561 469.586 295.979 469.317 296.342C468.745 297.095 468.227 297.888 467.767 298.714C467.525 299.132 467.296 299.577 467.08 300.062L397.64 259.985L389.204 264.85V270.24L389.918 270.644L390.592 271.035V272.113L389.245 272.908V276.035L399.446 297.596L409.525 303.431L412.881 299.388L421.775 304.711L426.882 313.457L432.515 316.704L439.563 310.451L448.214 315.451L451.125 327.458L465.665 335.867C466.384 338.922 467.284 341.933 468.36 344.882C468.454 345.178 468.576 345.488 468.697 345.825C473.521 358.492 481.189 369.34 489.84 374.34C490.877 374.954 491.963 375.482 493.088 375.916C493.682 376.153 494.29 376.355 494.907 376.523C495.446 376.666 495.985 376.788 496.524 376.886C498.226 377.197 499.97 377.197 501.672 376.886L502.373 376.711C502.708 376.644 503.037 376.549 503.356 376.428L504.111 376.132C504.378 376.035 504.635 375.914 504.879 375.768C505.128 375.66 505.371 375.539 505.607 375.404L505.957 375.188C506.021 375.168 506.08 375.136 506.132 375.094C508.059 373.989 512.803 371.24 514.097 370.512C520.511 366.793 524.661 357.387 524.661 344.087C524.651 340.653 524.385 337.226 523.866 333.832Z" fill="#175873"/>
<path d="M501.766 349.894C498.424 347.967 495.729 342.254 495.729 337.133C495.729 332.012 498.424 329.411 501.766 331.325C505.108 333.239 507.79 338.966 507.79 344.1C507.79 349.234 505.095 351.822 501.766 349.894ZM515.417 338.696C512.587 319.372 502.197 300.237 489.813 293.095C484.073 289.78 478.763 289.537 474.451 291.814L474.006 292.084C473.652 292.279 473.31 292.495 472.982 292.731C472.329 293.18 471.716 293.685 471.149 294.24L470.88 294.496C470.637 294.739 470.381 295.022 470.152 295.291C469.923 295.561 469.573 295.978 469.303 296.342C468.731 297.095 468.213 297.888 467.753 298.714C467.511 299.132 467.282 299.576 467.066 300.062C465.81 302.666 464.904 305.426 464.371 308.268L389.19 264.85V270.24L389.905 270.644L390.578 271.035V272.113L389.231 272.908V276.034L399.432 297.595L409.512 303.43L412.867 299.388L421.761 304.711L426.868 313.456L432.501 316.704L439.549 310.451L448.2 315.451L451.111 327.458L465.665 335.866C466.383 338.922 467.283 341.933 468.36 344.882C468.454 345.178 468.576 345.488 468.697 345.825C473.521 358.492 481.189 369.34 489.84 374.339C490.877 374.954 491.963 375.482 493.088 375.916C493.682 376.152 494.29 376.355 494.907 376.522C495.446 376.666 495.985 376.787 496.524 376.886C498.226 377.196 499.97 377.196 501.672 376.886L502.372 376.711C502.707 376.644 503.037 376.549 503.356 376.428L504.111 376.132C504.378 376.035 504.635 375.913 504.879 375.768C505.128 375.66 505.371 375.539 505.607 375.404L505.957 375.188C506.021 375.167 506.08 375.136 506.132 375.094C512.277 371.213 516.225 361.942 516.225 348.965C516.203 345.527 515.933 342.095 515.417 338.696Z" fill="#175873"/>
<path opacity="0.4" d="M507.79 344.087C507.79 349.221 505.095 351.822 501.766 349.895C498.438 347.968 495.729 342.267 495.729 337.133C495.729 331.999 498.424 329.398 501.766 331.325C502.729 331.911 503.567 332.68 504.232 333.589C504.522 336.917 505.73 340.098 507.722 342.779C507.772 343.213 507.794 343.65 507.79 344.087Z" fill="black"/>
<path opacity="0.4" d="M524.634 344.073C524.634 357.374 520.484 366.78 514.07 370.499C512.722 371.227 508.032 373.976 506.105 375.081C512.25 371.2 516.199 361.928 516.199 348.951C516.184 345.519 515.923 342.092 515.417 338.696C512.587 319.372 502.197 300.237 489.813 293.095C484.073 289.78 478.763 289.537 474.451 291.815L482.402 287.233C486.808 284.659 492.306 284.78 498.249 288.217C510.633 295.372 521.023 314.494 523.853 333.832C524.366 337.221 524.627 340.645 524.634 344.073Z" fill="white"/>
<path d="M516.199 348.924C516.199 361.901 512.25 371.173 506.105 375.054C508.032 373.949 512.776 371.2 514.069 370.472C520.484 366.753 524.634 357.347 524.634 344.046C524.634 343.561 524.634 343.062 524.634 342.564L516.199 347.442C516.185 347.968 516.199 348.453 516.199 348.924Z" fill="#175873"/>
<path opacity="0.1" d="M516.199 348.924C516.199 361.901 512.25 371.173 506.105 375.054C508.032 373.949 512.776 371.2 514.069 370.472C520.484 366.753 524.634 357.347 524.634 344.046C524.634 343.561 524.634 343.062 524.634 342.564L516.199 347.442C516.185 347.968 516.199 348.453 516.199 348.924Z" fill="black"/>
<path opacity="0.15" d="M464.695 313.78V316.515L389.204 272.935L390.592 272.127V270.995L464.695 313.78Z" fill="black"/>
<path opacity="0.15" d="M464.695 314.912V316.515L389.204 272.935L390.592 272.127V272.113L464.695 314.912Z" fill="black"/>
<path opacity="0.15" d="M497.521 370.485C494.66 370.411 491.87 369.579 489.436 368.073C477.133 360.972 467.12 339.842 467.12 320.976C467.12 309.966 470.449 301.746 476.257 298.391C480.299 296.046 485.083 296.342 490.11 299.24C502.4 306.341 512.412 327.539 512.412 346.404C512.412 357.401 509.083 365.634 503.275 368.976C501.524 369.977 499.539 370.497 497.521 370.485ZM482.092 298.189C480.296 298.179 478.529 298.643 476.971 299.536C471.675 302.595 468.508 310.613 468.508 320.962C468.508 339.397 478.211 360.042 490.15 366.887C494.718 369.583 499.044 369.825 502.642 367.75C507.938 364.691 511.105 356.686 511.105 346.337C511.105 327.889 501.402 307.258 489.476 300.399C487.247 299.042 484.7 298.299 482.092 298.242V298.189Z" fill="black"/>
<path opacity="0.4" d="M467.012 300.035C465.756 302.639 464.85 305.399 464.317 308.241L389.136 264.823L397.572 259.958L467.012 300.035Z" fill="white"/>
<path d="M564.725 304.252C568.659 296.8 573.16 280.064 575.397 271.614C578.577 259.621 573.43 252.075 567.581 251.765C563.929 252.331 551.896 296.086 551.896 296.086C550.548 297.151 532.262 306.436 526.386 308.767C525.336 309.164 524.176 309.164 523.125 308.767C520.309 307.743 518.382 307.931 515.619 307.662C513.45 307.446 512.358 306.678 512.075 307.136C511.818 307.705 511.785 308.35 511.982 308.941C512.18 309.533 512.593 310.029 513.14 310.33C514.329 311.023 515.596 311.575 516.913 311.974C514.551 312.69 512.09 313.023 509.623 312.958C503.963 312.836 501.928 315.289 506.321 321.043C509.016 324.628 513.477 325.76 523.435 322.323C526.292 321.326 530.173 319.399 533.798 318.092C541.263 315.397 543.231 315.073 548.918 313.146C557.205 310.343 562.973 307.567 564.725 304.252Z" fill="#FFA8A7"/>
<path d="M565.385 250.633C568.821 251.104 572.123 251.873 574.157 254.676C576.192 257.478 577.823 261.413 575.828 272.126C574.301 279.661 572.257 287.081 569.71 294.334C569.71 294.334 561.706 297.757 553.203 289.079L559.051 266.467C559.051 266.467 559.995 251.765 565.385 250.633Z" fill="#455A64"/>
</svg>
