<svg width="147" height="147" viewBox="0 0 147 147" fill="none" xmlns="http://www.w3.org/2000/svg">
<path d="M117.141 57.4219H107.953V34.4531H117.141C118.968 34.4531 120.721 33.7272 122.013 32.4349C123.305 31.1427 124.031 29.39 124.031 27.5625C124.031 25.735 123.305 23.9823 122.013 22.6901C120.721 21.3978 118.968 20.6719 117.141 20.6719H105.656C104.587 19.2456 103.199 18.0879 101.605 17.2906C100.01 16.4932 98.2516 16.0781 96.4688 16.0781H82.6875C80.9046 16.0781 79.1462 16.4932 77.5515 17.2906C75.9569 18.0879 74.5697 19.2456 73.5 20.6719H66.6094C50.1674 20.6901 34.4041 27.2297 22.7779 38.856C11.1516 50.4822 4.61199 66.2455 4.59375 82.6875V89.5781C3.16744 90.6479 2.00977 92.035 1.21244 93.6297C0.415104 95.2243 0 96.9827 0 98.7656V112.547C0 114.33 0.415104 116.088 1.21244 117.683C2.00977 119.278 3.16744 120.665 4.59375 121.734V133.219C4.59375 135.046 5.31972 136.799 6.61197 138.091C7.90421 139.383 9.65687 140.109 11.4844 140.109C13.3119 140.109 15.0645 139.383 16.3568 138.091C17.649 136.799 18.375 135.046 18.375 133.219V124.031H41.3438V133.219C41.3438 135.046 42.0697 136.799 43.362 138.091C44.6542 139.383 46.4069 140.109 48.2344 140.109C50.0619 140.109 51.8145 139.383 53.1068 138.091C54.399 136.799 55.125 135.046 55.125 133.219V121.734C56.5513 120.665 57.709 119.278 58.5063 117.683C59.3036 116.088 59.7188 114.33 59.7188 112.547V98.7656C59.7188 96.9827 59.3036 95.2243 58.5063 93.6297C57.709 92.035 56.5513 90.6479 55.125 89.5781V82.6875C55.125 79.6417 56.335 76.7206 58.4887 74.5668C60.6424 72.4131 63.5635 71.2031 66.6094 71.2031H73.5C74.5697 72.6294 75.9569 73.7871 77.5515 74.5844C79.1462 75.3818 80.9046 75.7969 82.6875 75.7969H96.4688C98.2516 75.7969 100.01 75.3818 101.605 74.5844C103.199 73.7871 104.587 72.6294 105.656 71.2031H117.141C118.968 71.2031 120.721 70.4771 122.013 69.1849C123.305 67.8927 124.031 66.14 124.031 64.3125C124.031 62.485 123.305 60.7323 122.013 59.4401C120.721 58.1479 118.968 57.4219 117.141 57.4219ZM45.9375 101.062V110.25H13.7812V101.062H45.9375ZM41.3438 82.6875V87.2812H18.375V82.6875C18.3887 69.8991 23.4749 57.6385 32.5176 48.5958C41.5604 39.553 53.821 34.4668 66.6094 34.4531H71.2031V57.4219H66.6094C59.9108 57.4295 53.4888 60.0938 48.7523 64.8304C44.0157 69.567 41.3513 75.989 41.3438 82.6875ZM84.9844 29.8594H94.1719V62.0156H84.9844V29.8594Z" fill="#175873"/>
</svg>
