<svg width="60" height="62" viewBox="0 0 60 62" fill="none" xmlns="http://www.w3.org/2000/svg">
<path d="M48.4375 11.625H32.9375V3.875C32.9375 3.36114 32.7334 2.86833 32.37 2.50498C32.0067 2.14163 31.5139 1.9375 31 1.9375C30.4861 1.9375 29.9933 2.14163 29.63 2.50498C29.2666 2.86833 29.0625 3.36114 29.0625 3.875V11.625H13.5625C11.5071 11.625 9.53583 12.4415 8.08242 13.8949C6.62902 15.3483 5.8125 17.3196 5.8125 19.375V46.5C5.8125 48.5554 6.62902 50.5267 8.08242 51.9801C9.53583 53.4335 11.5071 54.25 13.5625 54.25H48.4375C50.4929 54.25 52.4642 53.4335 53.9176 51.9801C55.371 50.5267 56.1875 48.5554 56.1875 46.5V19.375C56.1875 17.3196 55.371 15.3483 53.9176 13.8949C52.4642 12.4415 50.4929 11.625 48.4375 11.625ZM41.6562 23.25C42.2311 23.25 42.7929 23.4204 43.2709 23.7398C43.7488 24.0591 44.1213 24.513 44.3413 25.0441C44.5612 25.5751 44.6188 26.1595 44.5067 26.7232C44.3945 27.287 44.1177 27.8048 43.7113 28.2113C43.3048 28.6177 42.787 28.8945 42.2232 29.0067C41.6595 29.1188 41.0751 29.0612 40.5441 28.8413C40.013 28.6213 39.5591 28.2488 39.2398 27.7709C38.9204 27.2929 38.75 26.7311 38.75 26.1562C38.75 25.3855 39.0562 24.6462 39.6012 24.1012C40.1463 23.5562 40.8855 23.25 41.6562 23.25ZM23.25 44.5625H19.375C18.3473 44.5625 17.3617 44.1542 16.635 43.4275C15.9083 42.7008 15.5 41.7152 15.5 40.6875C15.5 39.6598 15.9083 38.6742 16.635 37.9475C17.3617 37.2208 18.3473 36.8125 19.375 36.8125H23.25V44.5625ZM20.3438 29.0625C19.7689 29.0625 19.2071 28.8921 18.7291 28.5727C18.2512 28.2534 17.8787 27.7995 17.6587 27.2684C17.4388 26.7374 17.3812 26.153 17.4933 25.5893C17.6055 25.0255 17.8823 24.5077 18.2887 24.1012C18.6952 23.6948 19.213 23.418 19.7768 23.3058C20.3405 23.1937 20.9249 23.2513 21.4559 23.4712C21.987 23.6912 22.4409 24.0637 22.7602 24.5416C23.0796 25.0196 23.25 25.5814 23.25 26.1562C23.25 26.927 22.9438 27.6663 22.3988 28.2113C21.8538 28.7563 21.1145 29.0625 20.3438 29.0625ZM34.875 44.5625H27.125V36.8125H34.875V44.5625ZM42.625 44.5625H38.75V36.8125H42.625C43.6527 36.8125 44.6383 37.2208 45.365 37.9475C46.0917 38.6742 46.5 39.6598 46.5 40.6875C46.5 41.7152 46.0917 42.7008 45.365 43.4275C44.6383 44.1542 43.6527 44.5625 42.625 44.5625Z" fill="white"/>
</svg>
