<svg width="147" height="147" viewBox="0 0 147 147" fill="none" xmlns="http://www.w3.org/2000/svg">
<path d="M140.109 75.7969C138.282 75.7969 136.529 76.5229 135.237 77.8151C133.945 79.1073 133.219 80.86 133.219 82.6875V89.5781H113.121L104.881 81.3438L132.168 54.057C134.321 51.9033 135.53 48.9828 135.53 45.9375C135.53 42.8923 134.321 39.9717 132.168 37.8181L100.012 5.66181C98.9448 4.59231 97.6775 3.74378 96.2823 3.16482C94.887 2.58586 93.3913 2.28784 91.8807 2.28784C90.3701 2.28784 88.8743 2.58586 87.4791 3.16482C86.0839 3.74378 84.8166 4.59231 83.7497 5.66181L3.68643 86.4027C1.92407 88.171 0.725187 90.4219 0.241162 92.8711C-0.242863 95.3203 0.00967534 97.8581 0.966889 100.164C1.9241 102.47 3.54307 104.44 5.61936 105.826C7.69566 107.213 10.1362 107.953 12.6328 107.953H31.9839L46.994 122.963C48.0605 124.03 49.3267 124.876 50.7204 125.454C52.114 126.031 53.6078 126.329 55.1163 126.329C56.6249 126.329 58.1186 126.031 59.5123 125.454C60.9059 124.876 62.1722 124.03 63.2386 122.963L95.1135 91.0883L104.025 99.9945C105.09 101.065 106.356 101.914 107.751 102.492C109.145 103.069 110.641 103.364 112.151 103.359H133.219V110.25C133.219 112.078 133.945 113.83 135.237 115.122C136.529 116.415 138.282 117.141 140.109 117.141C141.937 117.141 143.689 116.415 144.982 115.122C146.274 113.83 147 112.078 147 110.25V82.6875C147 80.86 146.274 79.1073 144.982 77.8151C143.689 76.5229 141.937 75.7969 140.109 75.7969ZM91.8749 17.0371L100.488 25.6504L31.9897 94.1719H15.3947L91.8749 17.0371ZM55.1249 111.594L44.588 101.062L110.25 35.4063L120.781 45.9375L90.2499 76.4687L55.1249 111.594Z" fill="#175873"/>
</svg>
