<svg width="116" height="149" viewBox="0 0 116 149" fill="none" xmlns="http://www.w3.org/2000/svg">
<g id="Untitled-2 2" clip-path="url(#clip0_6_29)">
<path id="Vector" d="M64.1955 16.903C57.1692 17.9858 60.0005 23.6706 59.0822 27.623C34.1556 24.9159 20.5103 44.0549 20.002 58.9546C19.3461 78.118 33.7429 93.4563 52.742 94.1466C71.8284 94.8423 90.5077 77.8635 87.1763 55.5139C89.4883 55.3353 91.8386 55.3705 94.0768 54.8913C95.2055 54.6504 96.1866 53.5378 97.1295 52.7256C97.8373 52.103 98.5724 50.5925 98.9687 50.6981C100.693 51.1474 103.052 51.0879 103.41 53.5242C103.762 55.9119 103.866 58.3374 104.014 60.7494C104.076 61.8322 103.986 62.9151 103.956 63.9817C103.806 69.5339 103.738 69.7396 98.3647 71.1473C96.2167 71.7104 94.812 72.6551 94.5387 74.9372C94.4853 75.4757 94.3066 75.9946 94.0167 76.4531C91.3603 80.2268 91.1827 83.8597 94.1233 87.6631C94.6316 88.321 94.3419 90.2863 93.6942 90.9983C90.6717 94.3171 87.4086 97.433 84.192 100.57C82.7545 101.973 81.0984 101.572 79.7401 100.524C76.7749 98.2343 73.8371 97.8715 70.7216 100.159C70.5834 100.276 70.4198 100.361 70.2433 100.405C66.1276 101.123 63.8293 103.437 63.3865 107.649C63.1925 109.493 61.8397 110.394 59.9349 110.392C55.8656 110.392 51.7936 110.343 47.7271 110.408C45.5408 110.443 44.1388 109.496 43.9257 107.411C43.513 103.391 41.3458 101.185 37.405 100.554C37.2279 100.506 37.0636 100.421 36.924 100.302C33.6801 97.9581 30.5865 98.107 27.4409 100.611C25.9214 101.818 24.1997 101.661 22.7595 100.254C19.8626 97.4194 16.9986 94.5526 14.1072 91.7156C12.5112 90.1482 12.3527 88.4888 13.6262 86.6534C14.0334 86.066 14.2657 85.3513 14.7002 84.7855C15.9819 83.1017 16.1295 81.5235 14.8669 79.6719C13.9793 78.4088 13.3738 76.9728 13.0905 75.4596C12.6068 72.425 10.6965 71.3341 7.94998 70.9361C5.05039 70.5165 3.44892 68.9979 3.57737 65.8712C3.73314 61.9351 3.57737 57.9801 3.85065 54.0575C3.92171 53.0992 5.09412 52.0272 6.0233 51.3829C6.86503 50.8009 8.05383 50.6791 9.11146 50.4517C11.0245 50.0375 12.4702 49.2552 12.7134 47.0706C12.8257 46.3566 13.0944 45.6757 13.5005 45.0755C15.8535 41.3559 16.2634 37.8016 13.2982 34.0766C12.7517 33.3836 13.0249 31.2586 13.7246 30.4979C16.6689 27.2167 19.8227 24.1261 23.1667 21.2451C24.0193 20.5196 26.3587 20.3924 27.266 21.0339C30.622 23.4243 33.4778 22.9478 37.1454 21.4129C40.8129 19.878 43.5403 18.2294 44.0159 14.0578C44.2427 12.0735 45.784 11.3101 47.4784 11.2506C51.5477 11.1098 55.6279 11.1017 59.6971 11.2181C63.2198 11.3183 63.5177 14.1444 64.1955 16.903Z" fill="#2B7C85"/>
<path id="Vector_2" d="M116 24.3555C115.292 27.3523 115.514 29.97 111.761 30.9229C110.797 31.1665 109.575 34.3771 110.083 35.5682C111.176 38.1887 110.485 39.8508 108.717 41.54C107.807 42.4117 106.971 43.4837 105.877 44.0035C104.784 44.5232 103.308 44.867 102.243 44.5314C99.272 43.5893 97.2715 44.4312 95.8477 47.2709C95.5526 47.7765 95.1566 48.2172 94.684 48.5663C94.2113 48.9153 93.6718 49.1654 93.0984 49.3012C91.2185 49.6175 89.2978 49.6129 87.4195 49.2877C86.3673 49.1036 85.0501 48.2482 84.5855 47.3305C83.0578 44.3013 81.3279 43.5649 78.0266 44.6423C77.0755 44.951 75.608 44.8021 74.8127 44.2471C73.2823 43.1778 71.8065 41.8351 70.8008 40.2894C70.1293 39.114 69.9423 37.727 70.2788 36.4183C71.0987 33.7247 70.1695 31.6511 67.4968 30.3463C66.5567 29.8861 65.6657 28.6381 65.4389 27.6013C65.0836 25.9771 65.3596 24.2148 65.2831 22.5147C65.1902 20.5196 66.0511 19.3637 68.016 18.7763C69.847 18.2348 71.3966 15.1921 70.4975 13.6491C69.131 11.2777 69.9017 9.56409 71.6262 7.9236C72.6701 6.93011 73.6075 5.73899 74.8291 5.04057C75.7991 4.5201 76.9335 4.38739 77.9992 4.6697C81.2404 5.76877 83.1589 5.0135 84.5582 1.98699C84.9244 1.19923 85.8645 0.221982 86.6215 0.148891C89.0442 -0.0703822 91.482 -0.0703822 93.9046 0.148891C94.5933 0.205739 95.4487 1.08554 95.8013 1.79479C97.4137 5.05681 99.2228 5.79855 102.497 4.63722C103.36 4.33132 104.768 4.36651 105.429 4.88897C107.137 6.21505 108.674 7.74329 110.007 9.43956C110.553 10.1407 110.717 11.5105 110.458 12.4173C109.386 16.1206 110.064 17.1222 113.387 19.315C114.754 20.2327 115.153 22.6311 116 24.3555ZM104.268 24.7616C104.229 16.9571 97.8919 10.6253 90.1578 10.6496C82.5058 10.6848 76.1545 16.9842 76.1709 24.5559C76.1901 32.3712 82.4894 38.6922 90.2316 38.6678C97.8837 38.6435 104.301 32.2818 104.268 24.7616Z" fill="#175873"/>
<path id="Vector_3" d="M42.2668 86.0389C33.5434 81.7644 28.1187 75.2106 26.3314 66.1148C23.2951 50.6845 33.128 36.4968 48.67 33.5948C53.6329 32.669 58.6067 32.9803 63.3811 34.84C66.2479 35.958 66.4501 36.5238 65.3078 39.2823C65.0099 40.0024 64.7612 40.8578 64.8678 41.605C65.1411 43.6922 71.1206 49.5313 73.1703 49.6883C74.0641 49.7282 74.9497 49.5039 75.7146 49.044C77.9501 47.677 78.953 48.7084 79.7729 50.7143C84.1073 61.3098 80.7731 74.5365 71.8093 81.759C69.8771 83.3156 67.71 84.5879 65.3733 86.1851C64.7202 83.6567 64.8924 82.1461 66.7398 80.5733C78.1277 70.8955 74.8947 52.344 61.0335 47.2763C58.287 46.272 56.5953 47.344 56.5133 50.2352C56.445 52.7527 56.333 55.2838 56.5434 57.7852C56.7429 60.1972 55.8738 61.7294 53.6629 62.5577C51.5313 61.6969 50.8125 60.1566 50.982 57.8962C51.1323 55.3826 51.1323 52.8624 50.982 50.3488C50.8426 47.2195 49.2302 46.2422 46.2623 47.3332C33.0406 52.1897 29.5507 70.6952 40.0696 80.197C42.5046 82.4006 42.5046 82.4006 42.2668 86.0389Z" fill="#175873"/>
<path id="Vector_4" d="M44.7537 54.2281C44.7537 55.4408 44.9204 56.3558 44.7264 57.1923C43.3162 63.2589 47.5686 65.855 51.7253 68.4916C52.1067 68.734 52.5365 68.8919 52.9852 68.9545C55.3136 69.255 61.6484 63.9248 61.7167 61.5697C61.785 59.2145 61.7304 56.7998 61.7304 54.0386C64.8295 55.8009 66.6058 58.0829 66.9065 61.012C67.5897 67.6064 66.8819 73.7813 60.323 77.7119C59.5277 78.1884 59.0112 79.6069 58.9183 80.6464C58.7133 82.9528 58.8554 85.289 58.8554 88.0638C55.524 88.0638 52.3839 88.1314 49.2548 87.9934C48.7437 87.9717 48.0468 87.1163 47.8364 86.5099C47.585 85.7844 47.6861 84.9046 47.7681 84.106C48.107 80.7114 47.4347 78.2209 44.106 76.0444C38.7796 72.5631 36.5414 58.378 44.7537 54.2281Z" fill="#2B7C85"/>
<path id="Vector_5" d="M90.3737 15.7443C91.4616 15.7479 92.538 15.9641 93.5412 16.3806C94.5445 16.7972 95.4549 17.4058 96.2201 18.1717C96.9854 18.9375 97.5905 19.8454 98.0007 20.8434C98.4109 21.8414 98.6182 22.9098 98.6107 23.9874C98.6298 28.3837 94.76 32.1925 90.2617 32.2115C85.7634 32.2304 81.7624 28.2402 81.8308 23.7302C81.8991 19.3664 85.8317 15.6875 90.3737 15.7443Z" fill="#2B7C85"/>
<path id="Vector_6" d="M0 116.301H2.36941L4.96838 124.379L7.56462 116.301H9.93676L5.8675 128.41H4.072L0 116.301Z" fill="#2B7C85"/>
<path id="Vector_7" d="M14.1836 128.359C13.642 128.247 13.1148 128.076 12.6122 127.847C12.1396 127.634 11.6968 127.361 11.295 127.035L12.3635 125.153C12.8508 125.545 13.4066 125.845 14.0033 126.039C14.6145 126.247 15.2563 126.353 15.9026 126.353C16.5095 126.386 17.1141 126.255 17.6517 125.974C17.8458 125.867 18.0066 125.71 18.1161 125.519C18.2255 125.328 18.2795 125.11 18.272 124.891C18.2804 124.752 18.2606 124.612 18.2136 124.48C18.1667 124.349 18.0936 124.228 17.9987 124.125C17.7978 123.926 17.5483 123.782 17.2745 123.708C16.8997 123.601 16.518 123.52 16.1322 123.464H16.0857H16.0393L15.8534 123.44C15.1622 123.343 14.4815 123.182 13.8202 122.961C13.2762 122.762 12.8017 122.413 12.4537 121.954C12.0766 121.475 11.888 120.794 11.888 119.91C11.8676 119.204 12.0516 118.507 12.4182 117.901C12.7883 117.332 13.3252 116.889 13.9568 116.632C14.7307 116.323 15.5604 116.174 16.3945 116.196C16.846 116.197 17.2959 116.247 17.7364 116.345C18.1968 116.445 18.6462 116.591 19.0782 116.778C19.5132 116.966 19.9295 117.195 20.3217 117.46L19.3461 119.393C18.8903 119.078 18.394 118.826 17.8703 118.643C17.3971 118.472 16.8983 118.38 16.3945 118.372C15.8269 118.341 15.261 118.459 14.7548 118.716C14.5774 118.81 14.4294 118.95 14.3272 119.121C14.225 119.293 14.1725 119.489 14.1754 119.688C14.1674 119.839 14.19 119.99 14.2421 120.133C14.2943 120.275 14.3747 120.405 14.4788 120.516C14.6877 120.724 14.9449 120.877 15.2276 120.963C15.6394 121.083 16.0571 121.183 16.4793 121.261L16.5476 121.274H16.6132L16.7116 121.296L16.8072 121.317C17.4696 121.434 18.1186 121.615 18.7448 121.859C19.2672 122.076 19.7172 122.434 20.0429 122.893C20.4201 123.47 20.6029 124.15 20.5649 124.837V124.864C20.5847 125.563 20.3945 126.253 20.0184 126.845C19.6285 127.415 19.0728 127.854 18.4251 128.104C17.6233 128.412 16.7678 128.559 15.9081 128.537C15.3285 128.538 14.7506 128.478 14.1836 128.359Z" fill="#2B7C85"/>
<path id="Vector_8" d="M23.3525 116.301H26.1674L30.7149 125.578L30.5126 125.795V116.301H32.7153V128.402H29.8841L25.353 119.266L25.5552 119.049V128.402H23.3525V116.301Z" fill="#2B7C85"/>
<path id="Vector_9" d="M43.8846 128.359C43.3421 128.247 42.814 128.076 42.3105 127.847C41.8388 127.634 41.397 127.361 40.996 127.035L42.0645 125.153C42.552 125.545 43.1078 125.845 43.7043 126.039C44.3199 126.248 44.9664 126.354 45.6173 126.353C46.2233 126.386 46.827 126.255 47.3636 125.974C47.5585 125.868 47.7199 125.711 47.83 125.52C47.94 125.328 47.9942 125.111 47.9867 124.891C47.9945 124.752 47.9743 124.612 47.9274 124.481C47.8805 124.349 47.8078 124.228 47.7134 124.125C47.5125 123.926 47.263 123.782 46.9892 123.708C46.6143 123.602 46.2326 123.52 45.8468 123.464H45.8004H45.7539L45.5681 123.44C44.8768 123.343 44.1961 123.182 43.5348 122.961C42.9909 122.762 42.5163 122.413 42.1684 121.954C41.7931 121.475 41.6054 120.794 41.6054 119.91C41.585 119.204 41.769 118.507 42.1356 117.901C42.5057 117.332 43.0426 116.889 43.6742 116.632C44.4481 116.322 45.2778 116.174 46.1119 116.196C46.5633 116.197 47.0133 116.247 47.4538 116.345C47.9133 116.445 48.3618 116.591 48.7929 116.778C49.2287 116.966 49.6459 117.195 50.0391 117.46L49.0635 119.393C48.6071 119.079 48.1109 118.827 47.5877 118.643C47.1145 118.472 46.6157 118.38 46.1119 118.372C45.5443 118.341 44.9784 118.459 44.4722 118.716C44.2948 118.81 44.1468 118.95 44.0446 119.121C43.9424 119.293 43.8899 119.489 43.8928 119.688C43.8847 119.839 43.9074 119.99 43.9595 120.133C44.0117 120.275 44.0921 120.405 44.1962 120.516C44.4041 120.723 44.6603 120.877 44.9423 120.963C45.355 121.083 45.7737 121.182 46.1967 121.261L46.2622 121.274H46.3306L46.4262 121.296L46.5246 121.317C47.187 121.434 47.836 121.615 48.4622 121.859C48.9846 122.076 49.4346 122.434 49.7603 122.893C50.1375 123.47 50.3203 124.15 50.2823 124.837V124.864C50.3021 125.563 50.1119 126.253 49.7357 126.845C49.3453 127.415 48.7898 127.854 48.1425 128.104C47.3406 128.412 46.4851 128.559 45.6255 128.537C45.0404 128.539 44.4569 128.479 43.8846 128.359Z" fill="#2B7C85"/>
<path id="Vector_10" d="M53.0453 116.301H55.3491V128.41H53.0453V116.301ZM53.8788 116.301H61.233V118.499H53.8788V116.301ZM53.8788 121.299H60.3093V123.51H53.8788V121.299ZM53.8788 126.212H61.233V128.41H53.8788V126.212Z" fill="#2B7C85"/>
<path id="Vector_11" d="M64.1954 116.293H66.4993V128.41H64.1954V116.293ZM65.1137 121.345H69.366C69.5867 121.348 69.8035 121.287 69.9892 121.169C70.1739 121.046 70.3183 120.873 70.4045 120.67C70.5074 120.434 70.5604 120.178 70.5603 119.921C70.5656 119.663 70.5153 119.407 70.4127 119.171C70.3265 118.968 70.1821 118.795 69.9973 118.673C69.8096 118.552 69.5896 118.491 69.366 118.497H65.1137V116.299H69.5519C70.1734 116.285 70.7868 116.441 71.3255 116.748C71.8365 117.049 72.2484 117.49 72.5116 118.018C72.7888 118.614 72.9323 119.264 72.9323 119.921C72.9323 120.578 72.7888 121.227 72.5116 121.824C72.2473 122.352 71.8344 122.793 71.3228 123.093C70.7847 123.4 70.1724 123.555 69.5519 123.543H65.1137V121.345ZM67.6853 123.169L70.1449 122.785L73.4408 128.415H70.6532L67.6853 123.169Z" fill="#2B7C85"/>
<path id="Vector_12" d="M74.9357 116.301H77.3133L79.9123 124.379L82.5058 116.301H84.8752L80.8032 128.41H79.0049L74.9357 116.301Z" fill="#2B7C85"/>
<path id="Vector_13" d="M89.4664 128.41H87.0779V116.301H89.4664V128.41Z" fill="#2B7C85"/>
<path id="Vector_14" d="M94.6316 128.004C93.9771 127.66 93.4477 127.121 93.1176 126.464C92.7516 125.704 92.5727 124.869 92.5956 124.027V120.698C92.5728 119.856 92.7517 119.021 93.1176 118.261C93.4487 117.604 93.9778 117.065 94.6316 116.718C95.3681 116.341 96.1888 116.155 97.0174 116.177C97.7351 116.164 98.4443 116.333 99.078 116.667C99.6958 117.005 100.213 117.498 100.578 118.096C101 118.789 101.278 119.557 101.398 120.356H99.0124C98.9375 119.993 98.7958 119.646 98.5943 119.333C98.4233 119.066 98.1899 118.843 97.9138 118.684C97.6405 118.531 97.331 118.453 97.0174 118.459C96.6351 118.45 96.2575 118.544 95.9242 118.73C95.6171 118.906 95.3741 119.174 95.2301 119.496C95.06 119.876 94.9778 120.29 94.9896 120.706V124.03C94.9775 124.445 95.0597 124.858 95.2301 125.237C95.3766 125.556 95.6191 125.822 95.9242 125.998C96.2575 126.184 96.6351 126.277 97.0174 126.269C97.335 126.274 97.6485 126.197 97.9274 126.047C98.2049 125.891 98.4388 125.67 98.6079 125.402C98.8048 125.086 98.9419 124.736 99.0124 124.371H101.398C101.276 125.17 100.997 125.938 100.578 126.631C100.213 127.227 99.6978 127.718 99.0834 128.058C98.451 128.393 97.7427 128.563 97.0256 128.551C96.1939 128.571 95.3705 128.383 94.6316 128.004Z" fill="#2B7C85"/>
<path id="Vector_15" d="M104.194 116.301H106.498V128.41H104.194V116.301ZM105.014 116.301H112.371V118.499H105.025L105.014 116.301ZM105.014 121.299H111.444V123.51H105.025L105.014 121.299ZM105.014 126.212H112.371V128.41H105.025L105.014 126.212Z" fill="#2B7C85"/>
<path id="Vector_16" d="M24.5959 148.824C24.0543 148.713 23.5271 148.541 23.0245 148.312C22.5519 148.099 22.1091 147.826 21.7073 147.5L22.7758 145.605C23.2631 145.997 23.8189 146.297 24.4156 146.491C25.0267 146.699 25.6686 146.805 26.3149 146.805C26.9218 146.837 27.5264 146.706 28.064 146.426C28.2581 146.319 28.4189 146.162 28.5283 145.971C28.6378 145.78 28.6918 145.562 28.6843 145.343C28.6923 145.204 28.6722 145.064 28.6253 144.933C28.5784 144.801 28.5055 144.68 28.411 144.577C28.2098 144.379 27.9603 144.236 27.6868 144.162C27.312 144.056 26.9303 143.975 26.5445 143.919H26.498H26.4516L26.2657 143.894C25.5745 143.797 24.8938 143.637 24.2325 143.415C23.6885 143.217 23.214 142.867 22.866 142.408C22.4889 141.93 22.3003 141.249 22.3003 140.364C22.2796 139.658 22.4636 138.961 22.8305 138.356C23.2006 137.787 23.7375 137.344 24.3691 137.086C25.143 136.777 25.9727 136.629 26.8068 136.65C27.2583 136.651 27.7082 136.701 28.1487 136.799C28.6091 136.9 29.0585 137.045 29.4905 137.232C29.9255 137.421 30.3418 137.649 30.734 137.915L29.7583 139.847C29.3026 139.533 28.8063 139.281 28.2826 139.098C27.8095 138.926 27.3106 138.834 26.8068 138.827C26.2392 138.795 25.6733 138.914 25.1671 139.171C24.9897 139.264 24.8417 139.404 24.7395 139.576C24.6373 139.747 24.5848 139.943 24.5877 140.142C24.5796 140.294 24.6023 140.445 24.6544 140.587C24.7066 140.729 24.787 140.86 24.8911 140.971C25.1 141.178 25.3571 141.332 25.6399 141.418C26.0517 141.538 26.4694 141.637 26.8916 141.715L26.9599 141.729H27.0255L27.1239 141.75L27.2195 141.772C27.8819 141.889 28.5309 142.07 29.1571 142.314C29.6795 142.53 30.1295 142.889 30.4552 143.348C30.8324 143.925 31.0152 144.605 30.9772 145.291V145.308C30.997 146.007 30.8068 146.697 30.4306 147.289C30.0408 147.859 29.4851 148.298 28.8374 148.548C28.0351 148.854 27.1799 149.002 26.3204 148.981C25.7416 148.989 25.1636 148.936 24.5959 148.824Z" fill="#2B7C85"/>
<path id="Vector_17" d="M32.2453 136.775H41.2064V138.973H32.2453V136.775ZM35.574 137.766H37.8778V148.875H35.574V137.766Z" fill="#2B7C85"/>
<path id="Vector_18" d="M46.1584 136.775H47.6205L52.2965 148.884H49.815L46.8909 140.613L43.9721 148.875H41.4934L46.1584 136.775ZM43.7289 144.744H50.1594V146.943H43.7234L43.7289 144.744Z" fill="#2B7C85"/>
<path id="Vector_19" d="M52.6463 136.775H61.6074V138.973H52.6463V136.775ZM55.975 137.766H58.2788V148.875H55.975V137.766Z" fill="#2B7C85"/>
<path id="Vector_20" d="M66.0347 148.875H63.6489V136.775H66.0374L66.0347 148.875Z" fill="#2B7C85"/>
<path id="Vector_21" d="M71.301 148.445C70.6356 148.086 70.0905 147.542 69.7323 146.88C69.354 146.157 69.166 145.351 69.1857 144.536V141.106C69.1657 140.292 69.3537 139.485 69.7323 138.762C70.0904 138.1 70.6355 137.555 71.301 137.194C72.0268 136.831 72.8286 136.642 73.6417 136.642C74.4548 136.642 75.2566 136.831 75.9824 137.194C76.6491 137.553 77.1946 138.098 77.5511 138.762C77.9297 139.485 78.1177 140.292 78.0976 141.106V144.536C78.1173 145.351 77.9293 146.157 77.5511 146.88C77.1944 147.543 76.6489 148.087 75.9824 148.445C75.2571 148.81 74.4551 149 73.6417 149C72.8282 149 72.0263 148.81 71.301 148.445ZM74.7362 146.455C75.0463 146.282 75.2989 146.024 75.4631 145.711C75.6382 145.364 75.7255 144.98 75.7173 144.593V141.047C75.7255 140.66 75.6382 140.277 75.4631 139.931C75.2997 139.618 75.0469 139.359 74.7362 139.187C74.3982 139.014 74.0234 138.924 73.643 138.924C73.2627 138.924 72.8879 139.014 72.5499 139.187C72.2381 139.358 71.9849 139.617 71.8229 139.931C71.6456 140.276 71.5574 140.66 71.566 141.047V144.593C71.5575 144.981 71.6457 145.365 71.8229 145.711C71.9856 146.025 72.2386 146.284 72.5499 146.455C72.8879 146.628 73.2627 146.718 73.643 146.718C74.0234 146.718 74.3982 146.628 74.7362 146.455Z" fill="#2B7C85"/>
<path id="Vector_22" d="M81.2241 136.775H84.0389L88.5865 146.052L88.387 146.269V136.775H90.5897V148.875H87.7557L83.2245 139.739L83.4268 139.523V148.875H81.2241V136.775Z" fill="#2B7C85"/>
</g>
<defs>
<clipPath id="clip0_6_29">
<rect width="116" height="149" fill="white"/>
</clipPath>
</defs>
</svg>
