<svg width="105" height="157" viewBox="0 0 105 157" fill="none" xmlns="http://www.w3.org/2000/svg">
<path d="M104.832 71.7789C104.589 70.5751 104.085 69.455 103.364 68.5155C102.644 67.576 101.727 66.8454 100.695 66.3869L71.4893 53.4321L77.5323 8.74532C77.7542 7.14066 77.5065 5.49939 76.8257 4.06225C76.1449 2.62512 75.0668 1.46775 73.7494 0.759915C72.4321 0.0520814 70.945 -0.168967 69.5061 0.129195C68.0672 0.427356 66.7523 1.22903 65.7543 2.41664L1.84275 78.3608C1.08305 79.2631 0.533136 80.3572 0.240638 81.5483C-0.0518598 82.7394 -0.0781226 83.9917 0.164123 85.1966C0.406368 86.4016 0.909819 87.5228 1.63087 88.4633C2.35192 89.4038 3.26884 90.1352 4.30221 90.5941L33.5075 103.549L27.4644 148.255C27.2426 149.859 27.4903 151.501 28.1711 152.938C28.8519 154.375 29.93 155.532 31.2473 156.24C32.5646 156.948 34.0518 157.169 35.4907 156.871C36.9296 156.573 38.2444 155.771 39.2424 154.583L103.154 78.6392C103.917 77.7343 104.469 76.636 104.761 75.4402C105.054 74.2444 105.078 72.9875 104.832 71.7789ZM44.2812 126.313L47.8591 99.8783C48.0877 98.1864 47.7946 96.4584 47.0271 94.9744C46.2597 93.4903 45.0629 92.3371 43.6307 91.7016L18.6823 80.6328L60.7156 30.6868L57.1377 57.1217C56.909 58.8136 57.2022 60.5416 57.9697 62.0257C58.7371 63.5097 59.9339 64.6629 61.3661 65.2984L86.3145 76.3672L44.2812 126.313Z" fill="#175873"/>
</svg>
